<svg xmlns="http://www.w3.org/2000/svg"  viewBox="0 0 256 256" width="40px" height="40px"><path fill="#FFBB98" d="M217.699,167.964c-1.46-0.132-2.927-0.202-4.394-0.202 c-5.248,0-10.512,0.846-15.574,2.554c-2.011,0.675-3.967,1.475-5.862,2.407L161.256,187.7l-51.226-27.794 c-1.545-0.885-3.222-1.304-4.883-1.304c-3.401,0-6.708,1.77-8.525,4.93c-2.702,4.697-1.079,10.706,3.626,13.4l50.643,46.396 c0.031,0.023,0.062,0.054,0.093,0.078c4.946,3.773,11.545,4.596,17.368,2.399l40.931-15.458 c4.542-1.529,9.301-1.863,13.851-1.102c2.655,0.443,5.241,1.258,7.686,2.43v-40.644 C226.588,169.4,222.171,168.376,217.699,167.964z"/><path fill="#5FCDFF" d="M250.229,164.6v50.943c0,1.943-1.571,3.515-3.515,3.515h-12.378c-1.943,0-3.515-1.571-3.515-3.515V164.6 c0-1.937,1.571-3.515,3.515-3.515h12.378C248.658,161.086,250.229,162.664,250.229,164.6z"/><path fill="#30B6FF" d="M250.229,164.6v50.943c0,1.943-1.571,3.515-3.515,3.515h-2.758c-1.943,0-3.515-1.571-3.515-3.515V164.6 c0-1.937,1.571-3.515,3.515-3.515h2.758C248.658,161.086,250.229,162.664,250.229,164.6z"/><path fill="#FFCAA6" d="M217.699,167.964c-1.46-0.132-2.927-0.202-4.394-0.202 c-5.248,0-10.512,0.846-15.574,2.554c-2.011,0.675-3.967,1.475-5.862,2.407L161.256,187.7l-4.852,2.376 c-3.175,1.599-5.008,4.814-5.008,8.136c0,1.382,0.311,2.787,0.978,4.099c2.267,4.495,7.74,6.304,12.236,4.037l37.583-18.384 c0,0,10.889-4.887,24.248-3.949l4.378,0.352v-13.336C226.588,169.4,222.171,168.376,217.699,167.964z"/><g><path fill="#FFE2E2" d="M74.543,183.663c6.395-5.476,10.331-13.741,9.903-22.915c-0.668-14.316-12.236-26.08-26.54-26.966 c-16.492-1.022-30.186,12.051-30.186,28.323c0,8.629,3.857,16.354,9.935,21.558h0c-17.588,0-31.847,14.258-31.847,31.847v10.897 c0,3.222,2.612,5.834,5.834,5.834h88.915c3.222,0,5.834-2.612,5.834-5.834v-10.897 C106.39,197.921,92.132,183.663,74.543,183.663L74.543,183.663z"/><path fill="#FFEFEE" d="M53.391,183.663c-8.793,0-16.758,3.568-22.518,9.329c-5.761,5.761-9.329,13.725-9.329,22.519v10.892 c0,3.221,2.613,5.834,5.834,5.834h-15.74c-3.221,0-5.834-2.613-5.834-5.834V215.51c0-8.793,3.568-16.758,9.329-22.519 c5.761-5.761,13.725-9.329,22.518-9.329c-6.076-5.205-9.937-12.928-9.937-21.564c0-16.265,13.704-29.339,30.189-28.321 c2.088,0.126,4.124,0.493,6.065,1.06c-11.847,3.41-20.514,14.323-20.514,27.261C43.454,170.736,47.316,178.459,53.391,183.663z"/><path fill="#FFCFCF" d="M106.393,215.51v10.892c0,3.221-2.613,5.834-5.834,5.834h-15.74c3.221,0,5.834-2.613,5.834-5.834V215.51 c0-17.587-14.26-31.847-31.847-31.847c6.39-5.477,10.325-13.746,9.895-22.917c-0.567-12.225-9.087-22.581-20.472-25.908 c3.043-0.881,6.306-1.27,9.675-1.06c14.302,0.892,25.876,12.655,26.537,26.968c0.43,9.171-3.505,17.44-9.895,22.917 C92.133,183.663,106.393,197.924,106.393,215.51z"/><polygon fill="#5FCDFF" points="56.099,188.524 45.999,206.634 56.099,232.237 66.198,206.634"/><g><path fill="#F9D335" d="M172.182,23.76c-31.91,0-57.777,25.868-57.777,57.777c0,9.082,2.098,17.673,5.832,25.319 c-2.769,11.202-8.279,25.745-19.002,33.689c-2.081,1.541-1.219,4.826,1.358,5.084c11.027,1.104,31.183,1.04,48.315-10.358 c6.584,2.609,13.762,4.044,21.275,4.044c31.91,0,57.777-25.868,57.777-57.777S204.091,23.76,172.182,23.76z"/><path fill="#F9E27D" d="M122.53,81.536c0,9.083,2.096,17.673,5.833,25.321c-2.773,11.201-8.281,25.743-19.005,33.689 c-2.08,1.544-1.219,4.826,1.359,5.086c1.506,0.152,3.185,0.282,4.999,0.363c-5.053,0.227-9.565-0.005-13.123-0.363 c-2.578-0.26-3.439-3.542-1.359-5.086c10.724-7.946,16.232-22.488,19.005-33.689c-3.737-7.648-5.833-16.238-5.833-25.321 c0-31.907,25.868-57.774,57.774-57.774c1.365,0,2.719,0.049,4.062,0.146C146.231,25.987,122.53,50.994,122.53,81.536z"/><path fill="#F2C300" d="M229.959,81.536c0,31.912-25.868,57.78-57.78,57.78c-1.365,0-2.719-0.049-4.062-0.146 c30.016-2.08,53.718-27.086,53.718-57.633c0-30.542-23.701-55.548-53.718-57.628c1.343-0.097,2.697-0.146,4.062-0.146 C204.092,23.761,229.959,49.629,229.959,81.536z"/></g></g><g><path fill="#5F266D" d="M246.665,157.042h-12.378c-4.15,0-7.527,3.377-7.527,7.527v0.924c-12.236-3.246-25.33-2.023-36.688,3.564 c-1.077,0.527-27.959,13.68-28.778,14.082l-49.353-26.746c-6.702-3.821-15.11-1.381-18.819,5.154 c-3.736,6.492-1.604,14.742,4.729,18.631c0.205,0.188,50.467,46.27,50.691,46.441c5.965,4.572,14.111,5.678,21.228,2.94 l40.852-15.433c5.277-1.772,10.919-1.686,16.138,0.208v1.156c0,3.974,3.236,7.528,7.527,7.528h12.378 c4.15,0,7.527-3.377,7.527-7.528v-50.923C254.193,160.419,250.816,157.042,246.665,157.042z M226.76,205.957 c-6.159-1.648-12.647-1.459-18.77,0.616c-0.107,0.036-40.964,15.472-41.07,15.512c-4.526,1.744-9.642,1.08-13.39-1.723 c-1.22-1.124-50.252-46.058-50.56-46.342c-0.228-0.213-0.48-0.398-0.752-0.552c-2.769-1.572-3.785-5.112-2.151-7.951 c1.604-2.824,5.174-3.749,7.931-2.163c0.037,0.022,44.694,24.222,44.732,24.243c-5.146,3.753-6.909,10.709-3.965,16.512 c3.293,6.406,11.19,8.993,17.562,5.807l38.353-18.728c4.748-2.319,1.247-9.511-3.51-7.189l-38.387,18.745 c-2.51,1.253-5.607,0.227-6.894-2.273c-1.278-2.519-0.226-5.601,2.249-6.854c5.618-2.786,4.079-2.024,35.457-17.377 c10.266-5.05,22.207-5.885,33.165-2.414V205.957z M246.193,215.021H234.76c0-9.397,0-39.098,0-49.979h11.433V215.021z"/><path fill="#5F266D" d="M82.686,180.595c4.043-5.787,6.094-12.771,5.755-20.034c-0.758-16.25-14.062-29.767-30.289-30.771 c-19.191-1.172-34.433,14.126-34.433,32.315c0,6.681,2.059,13.113,5.803,18.488C13.661,184.286,1.807,198.54,1.807,215.51v10.896 c0,5.423,4.412,9.834,9.834,9.834h88.915c5.422,0,9.834-4.411,9.834-9.834V215.51C110.39,198.544,98.542,184.292,82.686,180.595z M56.087,137.725c13.167,0,23.778,10.648,24.364,23.209c0.347,7.431-2.634,14.469-8.179,19.392 c-10.252,5.239-23.007,5.959-32.176,0.153c-5.323-4.64-8.376-11.322-8.376-18.374C31.719,148.547,42.697,137.725,56.087,137.725z M11.641,228.24c-1.011,0-1.834-0.822-1.834-1.834V215.51c0-14.993,11.911-27.25,26.767-27.82 c2.05,1.179,6.615,3.433,12.949,4.411l-7.018,12.585c-0.584,1.047-0.667,2.301-0.227,3.416l7.944,20.139H11.641z M56.099,221.336 l-5.684-14.408l5.684-10.191l5.684,10.191L56.099,221.336z M102.39,226.406c0,1.012-0.823,1.834-1.834,1.834H61.975l7.944-20.139 c0.44-1.115,0.357-2.369-0.227-3.416l-7.089-12.712c4.001-0.687,8.313-2.026,12.848-4.288c14.935,0.481,26.94,12.773,26.94,27.825 V226.406z"/><path fill="#5F266D" d="M102.193,149.609c16.84,1.685,34.771-0.992,49.181-9.889c40.199,14.392,82.584-15.6,82.584-58.184 c0-34.064-27.713-61.777-61.777-61.777s-61.777,27.713-61.777,61.777c0,8.989,1.883,17.637,5.6,25.729 c-2.656,10.139-7.736,23.089-17.151,30.064C93.84,141.042,95.982,148.987,102.193,149.609z M124.119,107.816 c0.225-0.911,0.123-1.872-0.289-2.715c-3.6-7.374-5.426-15.303-5.426-23.564c0-29.653,24.125-53.777,53.777-53.777 s53.777,24.124,53.777,53.777c0,37.81-38.293,64-73.579,50.015c-1.22-0.483-2.597-0.338-3.689,0.389 c-14.776,9.831-32.147,10.645-42.761,9.951C116.156,132.942,121.449,118.618,124.119,107.816z"/><path fill="#5F266D" d="M192.583,115.506c-0.029,0.048-3.175,4.79-11.759,6.369c-2.173,0.399-3.61,2.484-3.21,4.657 c0.398,2.16,2.47,3.612,4.658,3.21c12.174-2.239,16.92-9.711,17.116-10.027c1.162-1.879,0.581-4.345-1.298-5.507 C196.211,113.047,193.744,113.628,192.583,115.506z"/><path fill="#5F266D" d="M167.322,121.673l-0.781-0.142c-2.171-0.41-4.261,1.025-4.667,3.196c-0.992,5.306,7.765,6.872,8.695,1.577 C170.951,124.128,169.497,122.055,167.322,121.673z"/><path fill="#5F266D" d="M160.13,91.145c0-2.209-1.791-4-4-4s-4,1.791-4,4c0,8.143,6.254,15.877,16.626,15.877v0.75 c0,4.971,8,5.943,8-0.75c10.364,0,16.627-7.736,16.627-15.877v-4.75c0-8.754-7.122-15.876-15.876-15.876h-0.75V54.766h0.75 c4.343,0,7.876,3.533,7.876,7.876c0,2.209,1.791,4,4,4s4-1.791,4-4c0-8.754-7.122-15.876-15.876-15.876h-0.75v-0.75 c0-2.209-1.791-4-4-4s-4,1.791-4,4v0.75h-0.75c-8.754,0-15.876,7.122-15.876,15.876c0,8.755,7.122,15.877,15.876,15.877h0.75 v20.503C163.101,99.021,160.13,95.169,160.13,91.145z M176.757,78.519h0.75c4.343,0,7.876,3.533,7.876,7.876v4.75 c0,3.973-2.908,7.877-8.627,7.877V78.519z M168.006,70.519c-4.343,0-7.876-3.533-7.876-7.877c0-4.343,3.533-7.876,7.876-7.876 h0.75v15.753H168.006z"/></g></svg>