<svg xmlns="http://www.w3.org/2000/svg"  viewBox="0 0 64 64" width="40px" height="40px"><path fill="#D2AA82" d="M16,52L16,52c-1.105,0-2-0.895-2-2v-3h4v3C18,51.105,17.105,52,16,52z"/><path fill="#0A5078" d="M18,38h-4c-1.105,0-2,0.895-2,2v5c0,1.657,1.343,3,3,3h2c1.657,0,3-1.343,3-3v-5 C20,38.895,19.105,38,18,38z"/><path fill="#FAB400" d="M24,60H8v-7c0-1.657,1.343-3,3-3h10c1.657,0,3,1.343,3,3V60z"/><path fill="#D2AA82" d="M32,52L32,52c-1.105,0-2-0.895-2-2v-3h4v3C34,51.105,33.105,52,32,52z"/><path fill="#C80A50" d="M34,38h-4c-1.105,0-2,0.895-2,2v5c0,1.657,1.343,3,3,3h2c1.657,0,3-1.343,3-3v-5 C36,38.895,35.105,38,34,38z"/><path fill="#00A0C8" d="M40,60H24v-7c0-1.657,1.343-3,3-3h10c1.657,0,3,1.343,3,3V60z"/><path fill="#0A5078" d="M40,60H24v-7c0-1.657,1.343-3,3-3h10c1.657,0,3,1.343,3,3V60z"/><path fill="#00325A" d="M24.5,51.342C24.184,51.817,24,52.387,24,53v7h1v-7C25,52.387,24.816,51.817,24.5,51.342z"/><path fill="#D2AA82" d="M48,52L48,52c-1.105,0-2-0.895-2-2v-3h4v3C50,51.105,49.105,52,48,52z"/><path fill="#DC9600" d="M50,38h-4c-1.105,0-2,0.895-2,2v5c0,1.657,1.343,3,3,3h2c1.657,0,3-1.343,3-3v-5 C52,38.895,51.105,38,50,38z"/><path fill="#00A0C8" d="M56,60H40v-7c0-1.657,1.343-3,3-3h10c1.657,0,3,1.343,3,3V60z"/><path fill="#0082AA" d="M40.5,51.342C40.184,51.817,40,52.387,40,53v7h1v-7C41,52.387,40.816,51.817,40.5,51.342z"/><path fill="#0A5078" d="M57,6H27c-0.552,0-1-0.448-1-1v0c0-0.552,0.448-1,1-1h30c0.552,0,1,0.448,1,1v0C58,5.552,57.552,6,57,6z"/><g><path fill="#0A5078" d="M57,32H27c-0.552,0-1-0.448-1-1v0c0-0.552,0.448-1,1-1h30c0.552,0,1,0.448,1,1v0 C58,31.552,57.552,32,57,32z"/></g><g><rect width="28" height="24" x="28" y="6" fill="#00A0C8"/></g><g><path fill="#0082AA" d="M30,8h-1V7c0-0.552-0.448-1-1-1v15.874c1.725-0.444,3-2.01,3-3.874V9C31,8.448,30.552,8,30,8z"/></g><g><path fill="#C80A50" d="M26,12v6h-6v4h6c2.209,0,4-1.791,4-4v-6H26z"/></g><g><path fill="#F0C8A0" d="M29,8h-1V7c0-0.552-0.448-1-1-1s-1,0.448-1,1v5h4V9C30,8.448,29.552,8,29,8z"/></g><g><path fill="#C80A50" d="M17,4h-2c-2.761,0-5,2.239-5,5v10c0,0.552,0.448,1,1,1h10c0.552,0,1-0.448,1-1V9C22,6.239,19.761,4,17,4 z"/><path fill="#C80A50" d="M22,32H8V22c0-2.209,1.791-4,4-4h10V32z"/><path fill="#00A0C8" d="M12,18c0,2.209,1.791,4,4,4s4-1.791,4-4H12z"/><path fill="#D2AA82" d="M16,20L16,20c-1.105,0-2-0.895-2-2v-3h4v3C18,19.105,17.105,20,16,20z"/><path fill="#F0C8A0" d="M17,16h-2c-1.657,0-3-1.343-3-3v-3c0-1.105,0.895-2,2-2h1v0c0,1.105,0.895,2,2,2h3v3 C20,14.657,18.657,16,17,16z"/></g><g><rect width="1" height="8" x="12" y="24" fill="#A00028"/></g><g><path fill="#0082AA" d="M52,10h-6c-0.404,0-0.769,0.243-0.924,0.617s-0.069,0.804,0.217,1.09L47.586,14L42,19.586l-1.293-1.293 c-0.391-0.391-1.023-0.391-1.414,0l-8,8c-0.391,0.391-0.391,1.023,0,1.414C31.488,27.902,31.744,28,32,28 s0.512-0.098,0.707-0.293L40,20.414l1.293,1.293c0.391,0.391,1.023,0.391,1.414,0L49,15.414l2.293,2.293 C51.484,17.898,51.74,18,52,18c0.129,0,0.259-0.024,0.383-0.076C52.756,17.77,53,17.404,53,17v-6C53,10.447,52.552,10,52,10z"/></g><path fill="#C80A50" d="M52,9h-6c-0.404,0-0.769,0.243-0.924,0.617s-0.069,0.804,0.217,1.09L47.586,13L42,18.586l-1.293-1.293 c-0.391-0.391-1.023-0.391-1.414,0l-8,8c-0.391,0.391-0.391,1.023,0,1.414C31.488,26.902,31.744,27,32,27s0.512-0.098,0.707-0.293 L40,19.414l1.293,1.293c0.391,0.391,1.023,0.391,1.414,0L49,14.414l2.293,2.293C51.484,16.898,51.74,17,52,17 c0.129,0,0.259-0.024,0.383-0.076C52.756,16.77,53,16.404,53,16v-6C53,9.447,52.552,9,52,9z"/></svg>