<svg xmlns="http://www.w3.org/2000/svg"  viewBox="0 0 480 480" width="60px" height="60px"><path fill="#cbe3fa" d="M428,8H32C18.75,8,8,18.75,8,32v281c0,13.25,10.75,24,24,24h396c13.25,0,24-10.75,24-24V32	C452,18.75,441.25,8,428,8z"/><path fill="#585966" d="M8,287v26c0,13.25,10.75,24,24,24h160l-19.72,70c37.77-5.33,77.79-5.31,115.45,0.02L268,337h160	c13.25,0,24-10.75,24-24v-26H8z"/><path fill="#eef7ff" d="M428.099,38H289c-133.1,0-241,107.899-241,241c0,4.418-3.582,8-8,8H8V32C8,18.745,18.745,8,32,8h396	C448.685,8,447.614,38,428.099,38z"/><path fill="#6e6f80" d="M48,295v34c0,4.418-3.582,8-8,8h-8c-13.255,0-24-10.745-24-24v-26h32C44.418,287,48,290.582,48,295z"/><path fill="#6e6f80" d="M222,337l-18.84,66.86c-10.4,0.66-20.72,1.71-30.88,3.14L192,337H222z"/><path fill="#ff6d7a" d="M263,266v21H77v-21c0-34.22,18.48-64.11,45.99-80.26c26.069,25.66,67.903,25.707,94.02,0	C244.52,201.89,263,231.79,263,266z"/><path fill="#ffebd2" d="M122.99,185.74C110.65,173.59,103,156.69,103,138c0-37,30-67,67-67s67,30,67,67	c0,18.69-7.65,35.59-19.99,47.74C190.941,211.4,149.107,211.447,122.99,185.74z"/><path fill="#42434d" d="M261.943,353h-63.887c-5.303,0-9.139-5.066-7.7-10.17L192,337h76l1.643,5.83	C271.082,347.934,267.246,353,261.943,353z"/><path fill="#ffebd2" d="M448,205c13.25,0,24,10.75,24,24v219c0,13.25-10.75,24-24,24H281c-13.25,0-24-10.75-24-24V229	c0-13.25,10.75-24,24-24H448z"/><path fill="#fff3e4" d="M448.099,235H321c-13.255,0-24,10.745-24,24v197c0,8.837-7.163,16-16,16c-13.255,0-24-10.745-24-24	V229c0-13.255,10.745-24,24-24h167C468.685,205,467.614,235,448.099,235z"/><path d="M185.556,153.556c-8.576,8.578-22.535,8.578-31.111,0c-3.125-3.123-8.189-3.123-11.314,0 c-3.124,3.125-3.124,8.189,0,11.314c14.817,14.815,38.923,14.815,53.74,0c3.124-3.125,3.124-8.189,0-11.314 C193.745,150.433,188.681,150.433,185.556,153.556z"/><path d="M474.266,210.717c-2.527-3.626-7.514-4.514-11.138-1.989c-3.625,2.526-4.516,7.513-1.989,11.138 C463.011,222.551,464,225.71,464,229v219c0,8.822-7.178,16-16,16H281c-8.822,0-16-7.178-16-16V229c0-8.822,7.178-16,16-16h20v11 c0,4.418,3.582,8,8,8s8-3.582,8-8v-11h40v11c0,4.418,3.582,8,8,8s8-3.582,8-8v-11h40v11c0,4.418,3.582,8,8,8s8-3.582,8-8v-38 c0-4.418-3.582-8-8-8s-8,3.582-8,8v11h-40v-11c0-4.418-3.582-8-8-8s-8,3.582-8,8v11h-40v-11c0-4.418-3.582-8-8-8s-8,3.582-8,8v11 h-20c-17.645,0-32,14.355-32,32v100H32c-8.822,0-16-7.178-16-16v-18h192.483c4.418,0,8-3.582,8-8s-3.582-8-8-8H85v-13 c0-28.105,14.11-54.525,37.174-70.274c27.71,22.997,67.949,23.083,95.679,0.02c4.395,3,8.514,6.41,12.288,10.188 c3.122,3.124,8.185,3.129,11.314,0.006c3.125-3.123,3.128-8.188,0.006-11.314c-5.392-5.396-11.375-10.166-17.815-14.21 c-3.031-3.819-8.599-4.025-11.928-0.695C200.576,190.863,185.76,197,170,197c-32.532,0-59-26.468-59-59s26.468-59,59-59 c35.666,0,63.456,31.622,58.417,67.331c-0.617,4.375,2.43,8.423,6.804,9.04c4.383,0.608,8.422-2.429,9.04-6.805 C250.675,103.066,215.208,63,170,63c-41.355,0-75,33.645-75,75c0,17.372,5.953,33.369,15.903,46.097 C84.845,202.965,69,233.534,69,266v13H16V32c0-8.822,7.178-16,16-16h396c8.822,0,16,7.178,16,16v140.5c0,4.418,3.582,8,8,8 s8-3.582,8-8V32c0-17.645-14.355-32-32-32H32C14.355,0,0,14.355,0,32v281c0,17.645,14.355,32,32,32h149.435l-15.455,54.865 c-17.633,2.733-34.581,6.588-50.357,11.497c-4.219,1.313-6.574,5.797-5.262,10.016c1.315,4.226,5.803,6.572,10.016,5.262 c32.181-10.012,67.753-14.859,101.047-15.542c4.417-0.091,7.925-3.745,7.834-8.162c-0.09-4.417-3.729-7.88-8.162-7.834 c-12.765,0.262-25.431,1.107-37.851,2.485L198.058,345H249v103c0,17.645,14.355,32,32,32h167c17.645,0,32-14.355,32-32V229 C480,222.422,478.017,216.1,474.266,210.717z"/><path d="M427,272h-25.29c-4.418,0-8,3.582-8,8s3.582,8,8,8H427c4.418,0,8-3.582,8-8S431.418,272,427,272z"/><path d="M303,288h61.161c4.418,0,8-3.582,8-8s-3.582-8-8-8H303c-4.418,0-8,3.582-8,8S298.582,288,303,288z"/><path d="M435,341.5c0-4.418-3.582-8-8-8h-78.774c-4.418,0-8,3.582-8,8s3.582,8,8,8H427C431.418,349.5,435,345.918,435,341.5z"/><path d="M303,349.5h8.839c4.418,0,8-3.582,8-8s-3.582-8-8-8H303c-4.418,0-8,3.582-8,8S298.582,349.5,303,349.5z"/><path d="M303,411h81.613c4.418,0,8-3.582,8-8s-3.582-8-8-8H303c-4.418,0-8,3.582-8,8S298.582,411,303,411z"/></svg>