<svg xmlns="http://www.w3.org/2000/svg"  viewBox="0 0 100 100" width="40px" height="40px" baseProfile="basic"><path fill="#99c0d3" d="M21.647,29.326c-0.224,1.387-0.27,2.828-0.811,4.125c-1.088,2.61-3.849,4.011-6.1,5.723	c-4.75,3.612-7.745,9.587-7.321,15.539s4.47,11.614,10.125,13.519c2.733,0.921,5.67,0.985,8.554,1.037	c16.12,0.293,31.302,0.161,48.023-0.502c4.017-0.159,8.287-1.25,11.944-2.92s6.942-5.565,8.539-9.254	c1.547-3.574,1.315-7.868-0.607-11.255c-1.922-3.387-5.489-5.788-9.35-6.294c-1.051-0.138-2.173-0.161-3.06-0.74	c-1.235-0.807-1.615-2.403-2.044-3.815c-1.192-3.924-3.581-7.542-6.966-9.857s-7.792-3.222-11.724-2.056	c-1.582,0.469-3.137,1.264-4.781,1.13c-2.708-0.22-4.505-2.768-6.505-4.608C40.327,10.601,23.588,17.307,21.647,29.326z"/><path d="M55.319,27.083c0,0-0.187-0.034-0.551-0.101c-0.358-0.09-0.885-0.262-1.498-0.634c-0.616-0.367-1.3-0.938-2.033-1.691	c-0.745-0.743-1.513-1.693-2.549-2.638c-2.022-1.908-5.263-3.639-9.315-3.877c-4.009-0.268-8.758,0.87-12.887,3.961	c-2.059,1.531-3.927,3.598-5.229,6.151c-0.645,1.276-1.145,2.674-1.412,4.152c-0.275,1.468-0.346,2.848-0.815,3.918	c-0.449,1.072-1.344,1.988-2.456,2.828c-1.107,0.852-2.419,1.612-3.723,2.629c-2.607,2.02-4.78,4.755-6.178,7.968	c-1.398,3.201-1.966,6.947-1.241,10.646c0.727,3.671,2.683,7.152,5.622,9.747c1.479,1.283,3.214,2.333,5.126,3.01	c1.904,0.665,3.87,0.935,5.77,1.063c1.912,0.121,3.74,0.124,5.596,0.165c1.856,0.025,3.723,0.05,5.602,0.076	c7.516,0.072,14.857,0.015,21.944-0.156c3.543-0.086,7.023-0.2,10.429-0.337c1.702-0.074,3.387-0.147,5.054-0.22	c0.832-0.041,1.66-0.082,2.483-0.122c0.828-0.041,1.716-0.103,2.552-0.215c3.381-0.434,6.565-1.371,9.497-2.664	c0.711-0.314,1.502-0.706,2.2-1.147c0.693-0.453,1.351-0.937,1.953-1.465c1.21-1.05,2.248-2.219,3.15-3.448	c0.893-1.236,1.663-2.527,2.256-3.887c0.622-1.367,0.984-2.844,1.123-4.278c0.258-2.884-0.374-5.693-1.677-7.982	c-1.302-2.298-3.213-4.025-5.256-5.135c-1.025-0.557-2.087-0.968-3.149-1.235c-1.052-0.283-2.16-0.349-3.067-0.442	c-0.926-0.101-1.667-0.381-2.168-1.005c-0.513-0.607-0.808-1.411-1.071-2.188c-0.496-1.6-1.114-3.057-1.797-4.265	c-1.369-2.438-2.908-3.998-4.005-4.941c-0.556-0.469-1.003-0.796-1.311-1.005c-0.308-0.206-0.466-0.313-0.466-0.313	s0.151,0.117,0.444,0.343c0.292,0.228,0.715,0.583,1.235,1.082c1.026,1.003,2.44,2.634,3.631,5.079	c0.599,1.226,1.104,2.627,1.512,4.249c0.232,0.809,0.482,1.71,1.1,2.538c0.307,0.409,0.726,0.781,1.218,1.026	c0.489,0.246,1.012,0.375,1.517,0.465c1.027,0.159,1.945,0.256,2.9,0.562c0.948,0.289,1.889,0.707,2.785,1.25	c1.789,1.083,3.41,2.706,4.447,4.742c1.044,2.029,1.485,4.495,1.167,6.95c-0.172,1.229-0.514,2.435-1.091,3.589	c-0.565,1.178-1.301,2.316-2.138,3.394c-1.708,2.137-3.819,4.059-6.472,5.056c-2.735,1.112-5.719,1.898-8.797,2.215	c-0.778,0.084-1.524,0.118-2.339,0.14c-0.821,0.022-1.647,0.044-2.477,0.066c-1.662,0.038-3.342,0.077-5.039,0.116	c-3.399,0.055-6.866,0.111-10.392,0.168c-7.059,0.076-14.367,0.081-21.854,0.009c-1.872-0.022-3.732-0.044-5.581-0.066	c-1.848-0.034-3.702-0.031-5.436-0.13c-1.74-0.104-3.401-0.333-4.904-0.843c-1.486-0.512-2.867-1.318-4.072-2.334	c-2.395-2.054-4.079-4.917-4.724-7.907c-0.645-2.983-0.269-6.135,0.864-8.906c1.127-2.781,2.949-5.215,5.155-7.03	c1.094-0.917,2.394-1.727,3.628-2.734c1.225-0.99,2.457-2.261,3.081-3.901c0.614-1.636,0.59-3.156,0.801-4.425	c0.182-1.277,0.567-2.501,1.087-3.639c1.05-2.276,2.638-4.209,4.458-5.687c3.645-2.992,8.03-4.288,11.792-4.225	c3.803,0.029,6.951,1.478,9.007,3.201c1.05,0.849,1.883,1.758,2.681,2.463c0.788,0.717,1.526,1.258,2.179,1.592	c0.651,0.339,1.197,0.478,1.562,0.544C55.129,27.062,55.319,27.083,55.319,27.083z"/><path fill="#733d7e" d="M69.705,45.94c-1.598-1.884-3.34-3.626-5.186-5.252c-0.042-0.043-0.08-0.089-0.122-0.133	c-0.864-0.891-1.772-1.739-2.718-2.541c-1.054-0.894-2.297-2.26-3.801-1.975c-1.961,0.371-1.845,2.233-1.726,3.791	c0.081,1.068,0.163,2.136,0.244,3.204c-1.792,0.004-3.586,0.048-5.376,0.067c-3.806,0.04-7.611,0.081-11.417,0.121	c-0.051-1.654-0.102-3.307-0.153-4.961c-0.053-1.714-2.159-2.662-3.414-1.414c-3.095,3.077-6.189,6.154-9.284,9.231	c-0.034,0.033-0.058,0.073-0.088,0.109c-0.747,0.455-1.349,1.046-1.415,2.058c-0.096,1.49,1.06,2.369,2.076,3.255	c0.995,0.867,2.004,1.72,3.026,2.556c2.175,1.781,4.405,3.495,6.681,5.144c1.238,0.897,3.053-0.308,3.009-1.727	c-0.055-1.795-0.111-3.59-0.166-5.385c5.529,0.055,11.058,0.11,16.587,0.165c-0.034,0.706-0.072,1.412-0.1,2.119	c-0.049,1.244-0.345,2.847,0.803,3.705c1.296,0.969,2.572,0.292,3.627-0.643c0.925-0.82,1.842-1.648,2.752-2.485	c1.82-1.673,3.608-3.38,5.367-5.116c0.246-0.243,0.392-0.557,0.48-0.887C70.283,48.333,70.637,47.038,69.705,45.94z"/></svg>