<svg xmlns="http://www.w3.org/2000/svg"  viewBox="0 0 64 64" width="64px" height="64px"><path fill="#F0F0F0" d="M51.969,5.938c-3.331,0-6.031,2.7-6.031,6.031c0,1.32,0.429,2.538,1.149,3.531l-0.793,0.793 c-0.391,0.391-0.391,1.023,0,1.414s1.023,0.391,1.414,0l0.802-0.802C49.489,17.593,50.68,18,51.969,18C55.3,18,58,15.3,58,11.969 C58,8.638,55.3,5.938,51.969,5.938z"/><path fill="#D2D2D2" d="M55.15,14.05L55,14l0.151-0.05c0.912-0.304,0.932-1.577,0-1.9L55,12l0.154-0.051 c0.912-0.304,0.912-1.594,0-1.897l-2.838-0.946c-0.205-0.068-0.427-0.068-0.632,0l-2.838,0.946c-0.912,0.304-0.912,1.594,0,1.897 L49,12l-0.15,0.05c-0.932,0.323-0.912,1.596,0,1.9L49,14l-0.151,0.05c-0.932,0.323-0.912,1.596,0,1.9l2.83,0.94 c0.21,0.07,0.43,0.07,0.64,0l2.83-0.94C56.062,15.646,56.082,14.373,55.15,14.05z"/><path fill="#F0C8A0" d="M26,14.014v6h-3c-1.66,0-3-1.34-3-3c0-1.654,1.348-3,3-3H26z"/><path fill="#F0C8A0" d="M44,17.014c0,1.669-1.373,3-3,3h-3v-6h3C42.678,14.014,44,15.367,44,17.014z"/><path fill="#F0C8A0" d="M32,28L32,28c-4.418,0-8-3.582-8-8v-8h16v8C40,24.418,36.418,28,32,28z"/><path fill="#D2AA82" d="M31.969,20.014L31.969,20.014c-0.552,0-1-0.448-1-1v-2c0-0.552,0.448-1,1-1h0c0.552,0,1,0.448,1,1v2 C32.969,19.566,32.521,20.014,31.969,20.014z"/><circle cx="27.969" cy="17.014" r="1" fill="#00143C"/><circle cx="35.969" cy="17.014" r="1" fill="#00143C"/><path fill="#00143C" d="M34.819,20.014c-0.415,0-0.821,0.237-0.952,0.63c-0.266,0.794-1.018,1.37-1.898,1.37 s-1.632-0.576-1.898-1.37c-0.132-0.394-0.537-0.63-0.952-0.63c-0.657,0-1.154,0.64-0.947,1.263 c0.528,1.591,2.028,2.737,3.797,2.737s3.268-1.146,3.797-2.737C35.973,20.654,35.476,20.014,34.819,20.014z"/><path fill="#00143C" d="M40.493,4.145c-1.023,0.569-2.17,0.862-3.321,0.862H28c-2.209,0-4,1.784-4,3.993v11c1.105,0,2-0.895,2-2v-5 c0-0.552,0.448-1,1-1h10c0.552,0,1,0.448,1,1v5c0,1.105,0.895,2,2,2v-6.54c0-0.692,0.337-1.37,0.946-1.698 C41.574,11.425,42,10.762,42,10l0-5C42,4.225,41.17,3.768,40.493,4.145z"/><path fill="#0A5078" d="M56,27v27H8V27c0-1.1,0.9-2,2-2h44C55.1,25,56,25.9,56,27z"/><path fill="#00325A" d="M22,25v1c0,0.55-0.45,1-1,1h-6c-0.55,0-1-0.45-1-1v-1H22z"/><path fill="#00325A" d="M50,25v1c0,0.55-0.45,1-1,1h-6c-0.55,0-1-0.45-1-1v-1H50z"/><path fill="#F0F0F0" d="M54,29v22c0,0.55-0.45,1-1,1H11c-0.55,0-1-0.45-1-1V29c0-0.55,0.45-1,1-1h42C53.55,28,54,28.45,54,29z"/><path fill="#D2D2D2" d="M22,49.5c-0.256,0-0.512-0.098-0.707-0.293l-8-8c-0.391-0.391-0.391-1.023,0-1.414l8-8 c0.391-0.391,1.023-0.391,1.414,0s0.391,1.023,0,1.414L15.414,40.5l7.293,7.293c0.391,0.391,0.391,1.023,0,1.414 C22.512,49.402,22.256,49.5,22,49.5z"/><path fill="#00325A" d="M22,48.5c-0.256,0-0.512-0.098-0.707-0.293l-8-8c-0.391-0.391-0.391-1.023,0-1.414l8-8 c0.391-0.391,1.023-0.391,1.414,0s0.391,1.023,0,1.414L15.414,39.5l7.293,7.293c0.391,0.391,0.391,1.023,0,1.414 C22.512,48.402,22.256,48.5,22,48.5z"/><path fill="#D2D2D2" d="M42,49.5c-0.256,0-0.512-0.098-0.707-0.293c-0.391-0.391-0.391-1.023,0-1.414l7.293-7.293l-7.293-7.293 c-0.391-0.391-0.391-1.023,0-1.414s1.023-0.391,1.414,0l8,8c0.391,0.391,0.391,1.023,0,1.414l-8,8 C42.512,49.402,42.256,49.5,42,49.5z"/><path fill="#00325A" d="M42,48.5c-0.256,0-0.512-0.098-0.707-0.293c-0.391-0.391-0.391-1.023,0-1.414l7.293-7.293l-7.293-7.293 c-0.391-0.391-0.391-1.023,0-1.414s1.023-0.391,1.414,0l8,8c0.391,0.391,0.391,1.023,0,1.414l-8,8 C42.512,48.402,42.256,48.5,42,48.5z"/><path fill="#00A0C8" d="M60,55c0,1.38-0.56,2.63-1.46,3.54C57.63,59.44,56.38,60,55,60H9c-2.76,0-5-2.24-5-5c0-0.55,0.45-1,1-1h54 C59.55,54,60,54.45,60,55z"/><path fill="#0082AA" d="M37,56H27c-0.552,0-1-0.448-1-1v-1h12v1C38,55.552,37.552,56,37,56z"/><path fill="#F0C8A0" d="M22,23v2c0,0.55-0.45,1-1,1h-6c-0.55,0-1-0.45-1-1v-2c0-1.1,0.9-2,2-2h4C21.1,21,22,21.9,22,23z"/><path fill="#D2AA82" d="M16.5,24v2h-1v-2c0-0.28,0.22-0.5,0.5-0.5S16.5,23.72,16.5,24z"/><path fill="#D2AA82" d="M18.5,24v2h-1v-2c0-0.28,0.22-0.5,0.5-0.5S18.5,23.72,18.5,24z"/><path fill="#D2AA82" d="M20.5,24v2h-1v-2c0-0.28,0.22-0.5,0.5-0.5S20.5,23.72,20.5,24z"/><path fill="#F0C8A0" d="M50,23v2c0,0.55-0.45,1-1,1h-6c-0.55,0-1-0.45-1-1v-2c0-1.1,0.9-2,2-2h4C49.1,21,50,21.9,50,23z"/><path fill="#D2AA82" d="M44.5,24v2h-1v-2c0-0.28,0.22-0.5,0.5-0.5S44.5,23.72,44.5,24z"/><path fill="#D2AA82" d="M46.5,24v2h-1v-2c0-0.28,0.22-0.5,0.5-0.5S46.5,23.72,46.5,24z"/><path fill="#D2AA82" d="M48.5,24v2h-1v-2c0-0.28,0.22-0.5,0.5-0.5S48.5,23.72,48.5,24z"/><g><path fill="#FAB400" d="M55.15,14.95l-2.83,0.94c-0.21,0.07-0.43,0.07-0.64,0l-2.83-0.94c-0.912-0.304-0.932-1.577,0-1.9 l2.83-0.94c0.21-0.07,0.43-0.07,0.64,0l2.83,0.94C56.082,13.373,56.062,14.646,55.15,14.95z"/><path fill="#DC9600" d="M55.71,13.5c-0.11,0.2-0.3,0.36-0.56,0.45l-2.83,0.94c-0.21,0.07-0.43,0.07-0.64,0l-2.83-0.94 c-0.26-0.09-0.45-0.25-0.56-0.45c0.11-0.2,0.3-0.36,0.56-0.45l2.83-0.94c0.21-0.07,0.43-0.07,0.64,0l2.83,0.94 C55.41,13.14,55.6,13.3,55.71,13.5z"/><path fill="#00A0C8" d="M55.15,12.95l-2.83,0.94c-0.21,0.07-0.43,0.07-0.64,0l-2.83-0.94c-0.912-0.304-0.932-1.577,0-1.9 l2.83-0.94c0.21-0.07,0.43-0.07,0.64,0l2.83,0.94C56.082,11.373,56.062,12.646,55.15,12.95z"/><path fill="#0082AA" d="M55.71,11.5c-0.11,0.2-0.3,0.36-0.56,0.45l-2.83,0.94c-0.21,0.07-0.43,0.07-0.64,0l-2.83-0.94 c-0.26-0.09-0.45-0.25-0.56-0.45c0.11-0.2,0.3-0.36,0.56-0.45l2.83-0.94c0.21-0.07,0.43-0.07,0.64,0l2.83,0.94 C55.41,11.14,55.6,11.3,55.71,11.5z"/><path fill="#C80A50" d="M51.684,8.105l-2.838,0.946c-0.912,0.304-0.912,1.593,0,1.897l2.838,0.946 c0.205,0.068,0.427,0.068,0.632,0l2.838-0.946c0.912-0.304,0.912-1.593,0-1.897l-2.838-0.946 C52.111,8.037,51.889,8.037,51.684,8.105z"/></g><g><path fill="#F0F0F0" d="M11.969,5.938c3.331,0,6.031,2.7,6.031,6.031c0,1.32-0.429,2.538-1.149,3.531l0.793,0.793 c0.391,0.391,0.391,1.023,0,1.414s-1.023,0.391-1.414,0l-0.802-0.802C14.448,17.593,13.257,18,11.969,18 c-3.331,0-6.031-2.7-6.031-6.031C5.938,8.638,8.638,5.938,11.969,5.938z"/></g><g><path fill="#D2D2D2" d="M10.262,15.676l-2-2c-0.391-0.391-0.391-1.023,0-1.414s1.023-0.391,1.414,0l1.293,1.293l3.293-3.293 c0.391-0.391,1.023-0.391,1.414,0s0.391,1.023,0,1.414l-4,4C11.285,16.066,10.652,16.066,10.262,15.676z"/></g><g><path fill="#C80A50" d="M10.262,14.676l-2-2c-0.391-0.391-0.391-1.023,0-1.414s1.023-0.391,1.414,0l1.293,1.293l3.293-3.293 c0.391-0.391,1.023-0.391,1.414,0s0.391,1.023,0,1.414l-4,4C11.285,15.066,10.652,15.066,10.262,14.676z"/></g><g><circle cx="26" cy="40" r="2" fill="#C80A50"/><circle cx="32" cy="40" r="2" fill="#00A0C8"/><circle cx="38" cy="40" r="2" fill="#FAB400"/></g></svg>