<svg xmlns="http://www.w3.org/2000/svg"  viewBox="0 0 48 48" width="40px" height="40px" baseProfile="basic"><path fill="#4caf50" d="M33.471,19.349C23.957,14.729,22.508,14,22.279,14c-0.216,0-0.984,0-4.378,0h-6.393L9.923,8.45	C9.619,7.389,8.514,6.769,7.451,7.077C6.389,7.381,5.773,8.487,6.077,9.55l2,7C8.322,17.408,9.107,18,10,18h6v6c0,0,7-0.159,7-0.16	v-5.258l9.016,4.492C34.416,24.081,36.078,20.435,33.471,19.349z"/><polygon fill="#039be5" points="17.277,28.138 11.485,24.823 5.844,27.355 10.414,30.591"/><polygon fill="#039be5" points="20.596,38.957 17.284,44.993 11.16,45.844 13.313,40.675"/><path fill="#ff3d00" d="M10.391,33.327c-2.776-0.631-6.748-0.914-8.788,5.437c5.13,4.264,8.329,1.893,10.333-0.13	L10.391,33.327z"/><path fill="#ffeb3b" d="M10.777,34.654c-1.746-0.211-4.268-0.197-5.824,3.135c3.101,1.976,5.237,0.634,6.597-0.481	L10.777,34.654z"/><circle cx="19.5" cy="8.5" r="4.5" fill="#ffb74d"/><path fill="#81d4fa" d="M48,25.242c-6.265-3.13-13.676-3.869-19.581-1.648l-18.005,6.997	c-2.488,1.058-0.094,10.585,2.9,10.085l18.972-3.635C38.468,35.785,44.355,31.222,48,25.242z"/><path fill="#039be5" d="M41.889,23.03c-0.883,1.677,0.074,6.273,2.106,7.335c1.513-1.532,2.868-3.258,4.005-5.122	C46.048,24.267,43.984,23.524,41.889,23.03z"/><path fill="#ffb74d" d="M33.471,19.349c-0.233-0.113-0.439-0.213-0.663-0.322c0.001,0,0.002,0.001,0.003,0.001l-1.803,3.544	h0l1.008,0.502C34.416,24.081,36.078,20.435,33.471,19.349z"/><path fill="#ffb74d" d="M6.271,10.227l3.854-1.069h0L9.923,8.45C9.619,7.389,8.514,6.769,7.451,7.077	C6.389,7.381,5.773,8.487,6.077,9.55L6.271,10.227z"/><path fill="#039be5" d="M11.429,30.196l-1.015,0.394c-2.488,1.058-0.094,10.585,2.9,10.085l1.513-0.29	C12.271,39.714,10.341,32.873,11.429,30.196z"/><path fill="#3f51b5" d="M23.924,28.843l1.874-4.372c-0.781-0.176-2.262-0.522-2.797-0.643L16,24v1.84	c0,0.021,0.011,0.039,0.012,0.059c-0.043,0.854,0.459,1.672,1.304,1.98L23.924,28.843z"/><path fill="#ffa726" d="M29.835,26.205c-0.219-0.504-0.635-0.896-1.152-1.085c0,0-1.503-0.338-2.961-0.666l-1.873,4.378	L25,29l-1.787,4.092c-0.428,0.998-0.073,2.22,0.9,2.7c0.287,0.141,0.589,0.209,0.886,0.209c0.776-0.001,1.514-0.455,1.839-1.213l3-7	C30.055,27.282,30.054,26.71,29.835,26.205z"/><circle cx="35" cy="29" r="3" fill="#0277bd"/></svg>