<svg xmlns="http://www.w3.org/2000/svg"  viewBox="0 0 68 68" width="40px" height="40px"><path fill="#ffd63c" d="M28.4156513,63.7505264l-4.4189053-2.5712128 c-0.3654785-0.209053-0.5955296-0.6689453-0.5955296-1.3169632l-0.0833988-28.06357 c0-0.4076443-0.1463966-0.7002659-0.3761921-0.8361473l4.4084492,2.5711498 c0.2402515,0.1358795,0.3866482,0.428566,0.3866482,0.8361473l0.0731964,28.063633 C27.8201218,63.0815811,28.0501728,63.5310097,28.4156513,63.7505264z"/><path d="M28.4153385,64.1512985c-0.0683594,0-0.1377144-0.0175781-0.2011719-0.0546875l-4.4189453-2.5712891 c-0.5029297-0.2880859-0.7939453-0.8945313-0.7939453-1.6630859l-0.0839844-28.0624981 c0-0.2382813-0.0683594-0.4267578-0.1796875-0.4921875c-0.1894531-0.1123047-0.2529297-0.3574219-0.140625-0.546875 c0.1103516-0.1914063,0.3544922-0.2558594,0.5458984-0.1435547l4.4082031,2.5712872 c0.3701172,0.2089844,0.5859375,0.640625,0.5859375,1.1816406l0.0732422,28.0625 c0.0068359,0.4716797,0.1533203,0.8203125,0.4111328,0.9755859c0.1884766,0.1132813,0.25,0.3574219,0.1386719,0.546875 C28.6848698,64.080986,28.5520573,64.1512985,28.4153385,64.1512985z M23.7180729,31.8788395l0.0839844,27.98242 c0,0.4746094,0.1425781,0.828125,0.3925781,0.9707031l3.2314453,1.8808594 c-0.0087891-0.0888672-0.0146484-0.1796875-0.0166016-0.2734375L27.336237,34.3710251 c0-0.2412109-0.0683594-0.4238281-0.1826172-0.4882813L23.7180729,31.8788395z"/><path fill="#ffd63c" d="M35.195507,5.104353c-0.3968506-0.2299132-0.9296379-0.1567416-1.462429,0.156805 c-0.6478119,0.3762565-1.3058281,1.0974464-1.7133904,2.027689L20.6852455,33.2306976 c-0.5955296,1.3482857-0.3971043,2.4875793,0.2611656,2.8638344l-4.4189053-2.5712128 c-0.6582699-0.376255-0.8566942-1.5050888-0.2611656-2.8638344l11.334444-25.9418507 c0.4075603-0.9301786,1.0655766-1.6513686,1.7133904-2.0276887c0.5327873-0.3135471,1.0655766-0.3867188,1.4624252-0.1567416 L35.195507,5.104353z"/><path d="M20.9465885,36.4950485c-0.0673828,0-0.1357422-0.0175781-0.1982422-0.0527344 c-0.0058594-0.0039063-0.0126953-0.0068359-0.0185547-0.0107422l-4.4033203-2.5625 c-0.8945313-0.5107422-1.0712891-1.897459-0.4267578-3.3701153L27.2346745,4.55755 c0.4179497-0.9560544,1.1025391-1.7626951,1.8779297-2.2128904c0.6728516-0.3945314,1.3535156-0.4521486,1.8642578-0.1582031 l4.4189472,2.5712888c0,0,0,0.0009766,0.0009766,0.0009766l0,0c0.1904297,0.1113281,0.2558365,0.3554688,0.1445313,0.546875 c-0.1113281,0.1914063-0.3554688,0.2558594-0.546875,0.1445313c-0.2539063-0.1464844-0.640625-0.0908203-1.0585938,0.1552734 c-0.625,0.3632813-1.203125,1.0527344-1.5498047,1.84375L21.0510807,33.3905563 c-0.5234566,1.1875-0.3466797,2.0947266,0.0849609,2.3515625l0.0117188,0.0068359 c0.1904297,0.1103516,0.2558594,0.3544922,0.1455078,0.5458984 C21.2190495,36.4227829,21.0842838,36.4950485,20.9465885,36.4950485z M30.2493229,2.7987611 c-0.2138672,0-0.4667969,0.0800781-0.7324219,0.2363281c-0.625,0.3623047-1.203125,1.050781-1.5498047,1.8427732 L16.6321354,30.8192692c-0.5234375,1.1972637-0.3427734,2.10742,0.09375,2.3564434l3.21875,1.8730469 c-0.0595703-0.5810547,0.0615234-1.2705078,0.3740234-1.9794922L31.6536198,7.128839 c0.4179707-0.9550781,1.102541-1.7626953,1.8779316-2.2138672c0.0957031-0.0566406,0.1923828-0.1064453,0.2880859-0.1484375 l-3.2441425-1.8876951C30.4827213,2.8251283,30.3723698,2.7987611,30.2493229,2.7987611z"/><g><path fill="#fff" d="M33.7314339,5.2567935c0.6511688-0.3761449,1.3024178-0.4048076,1.7112961,0.0541124l11.453476,12.7774944 c0.9315414,1.0363998-0.0493927,3.7382545-1.70364,4.6938248l-4.0152054,2.3193703 c-0.7269783,0.4199371-1.3120041,1.4337616-1.3096581,2.2619514l0.0795021,28.0574169 c0.0037155,1.3112373-0.913681,2.9010963-2.0542641,3.5599518L29.889122,63.60429 c-1.1405849,0.6588554-2.0706692,0.1361885-2.0743847-1.1750526l-0.0795021-28.0574112 c-0.0023479-0.8281898-0.5845032-1.1677971-1.3114815-0.7478638l-4.0152073,2.3193703 c-1.6607609,0.9593353-2.6472626-0.606041-1.7246284-2.7134972L32.0211563,7.2873664 C32.4293594,6.356462,33.0802689,5.6329389,33.7314339,5.2567935z"/></g><g><path fill="#e9edf4" d="M45.1969719,22.7835312l-4.0200195,2.3200073 c-0.7299805,0.4199829-1.3098145,1.4299927-1.3098145,2.2600098l0.079834,28.0599976 c0,1.3099976-0.9099121,2.8999634-2.0500488,3.5599976l-8.0097656,4.6199951 c-0.9001465,0.5200195-1.670166,0.3099976-1.9501953-0.4500122 c5.9399414-6.1199951,9.8901367-17.0100098,9.8901367-29.4299927c0-9.8200073-2.4702148-18.6900024-6.4399414-25 l0.6298828-1.4400024c0.4099121-0.9299927,1.0600586-1.6500244,1.7099609-2.0299683 c0.6601563-0.3700562,1.3100586-0.4000244,1.7199707,0.0599976L46.8969231,18.083519 C47.8270988,19.123558,46.8471184,21.8235092,45.1969719,22.7835312z"/><path d="M28.9583073,64.290947c-0.2666016,0-0.515625-0.0634766-0.7382813-0.1923828 c-0.5166016-0.296875-0.8027344-0.8896484-0.8056641-1.6679688l-0.0791016-28.0576172 c0-0.2451172-0.0693359-0.4306641-0.1835938-0.4960938c-0.1132813-0.0654297-0.3105469-0.0302734-0.5273438,0.09375 l-4.015625,2.3193359c-0.8017578,0.4619141-1.5673828,0.4570313-2.0986328-0.0175781 c-0.6962891-0.6230469-0.7714844-1.8808594-0.1923828-3.203125L31.6545963,7.1268859 c0.4228535-0.9638672,1.1064472-1.7714844,1.876955-2.2167969l0,0 c0.8623047-0.4960938,1.6894531-0.4472656,2.2089844,0.1337891l11.453125,12.7783203 c0.3974609,0.4414063,0.5458984,1.1298828,0.4179688,1.9365234c-0.2148438,1.3544922-1.1279297,2.7392578-2.21875,3.3701172 l-4.015625,2.3193359c-0.6035156,0.3486328-1.1113281,1.2246094-1.109375,1.9140625l0.0800781,28.0576153 c0.0029297,1.4589844-0.9873047,3.1757813-2.2548828,3.9082031l-8.0039082,4.6230469 C29.6975651,64.1766891,29.3127995,64.290947,28.9583073,64.290947z M27.0129948,33.0419235 c0.1923828,0,0.3740234,0.046875,0.5380859,0.1416016c0.3691406,0.2119141,0.5830078,0.6455078,0.5849609,1.1875 l0.0791016,28.0576172c0.0009766,0.4804688,0.1445313,0.828125,0.4033203,0.9765625 c0.2597656,0.1484375,0.6494141,0.0947266,1.0703125-0.1474609l8.0039082-4.6230469 c1.0078125-0.5820313,1.8574219-2.0537109,1.8544922-3.2128906l-0.0800781-28.0576153 c-0.0019531-0.9726563,0.6611328-2.1181641,1.5097656-2.609375l4.015625-2.3193359 c0.8828125-0.5097656,1.6523438-1.6875,1.8291016-2.8017578c0.0888672-0.5644531,0.0097656-1.0175781-0.2236328-1.2773438 L35.1448326,5.5770812c-0.359375-0.4033203-0.9677734-0.1142578-1.2128906,0.0263672l0,0 c-0.6171875,0.3554688-1.1943359,1.0449219-1.5449219,1.8447266l-11.336916,25.9414043 c-0.4951172,1.1318359-0.3505859,1.9785156-0.0058594,2.2871094c0.3496094,0.3115234,0.8789063,0.0839844,1.1640625-0.0800781 l4.015625-2.3193359C26.4944401,33.1210251,26.7629948,33.0419235,27.0129948,33.0419235z M33.7317467,5.2567687h0.0097656 H33.7317467z"/></g><g><path fill="#fff" d="M50.0822105,58.644722c-0.9391174,0-1.7771721-0.664875-1.963089-1.6216431l-5.6089592-28.9091282 c-0.2107086-1.0855484,0.4986382-2.1367531,1.5836258-2.3475666c1.0859451-0.2108135,2.1356583,0.4988937,2.3463631,1.5844402 l5.608963,28.9091282c0.2107048,1.0855446-0.4986382,2.1367531-1.5836296,2.3475647 C50.3367729,58.6323204,50.2080612,58.644722,50.0822105,58.644722z"/><path d="M50.0823326,59.0448532c-1.1464844,0-2.1367188-0.8183594-2.3554688-1.9453125l-5.609375-28.9091778 c-0.2529297-1.2998047,0.5996094-2.5634766,1.9003906-2.8164063c0.6289063-0.1240234,1.2695313,0.0078125,1.8017578,0.3671875 c0.53125,0.359375,0.890625,0.9033203,1.0126953,1.5332031l5.609375,28.9091778 c0.2529297,1.2998047-0.5996094,2.5634766-1.9003906,2.8164063 C50.3889732,59.0302048,50.2336998,59.0448532,50.0823326,59.0448532z M44.478817,26.1298161 c-0.1025391,0-0.2060547,0.0097656-0.3085938,0.0292969c-0.8671875,0.1689453-1.4355469,1.0117188-1.267601,1.8789063 l5.6093979,28.9091778c0.1650391,0.8515625,1.0039063,1.4462891,1.875,1.2675781 c0.8691406-0.1689453,1.4375-1.0117188,1.2695313-1.8789063l-5.609375-28.9091778 c-0.0810547-0.4199219-0.3212891-0.7832031-0.6757813-1.0224609 C45.103817,26.2235661,44.7952232,26.1298161,44.478817,26.1298161z"/><path fill="#ffd63c" d="M45.54496,36.9045715l-10.8022995,6.244873c-0.3155823,0.1821976-0.6597672,0.269001-0.9991837,0.269001 c-0.691227,0-1.3643417-0.359623-1.7352219-1.0016022c-0.5529823-0.9577255-0.2250061-2.1825409,0.7322273-2.7358093 l10.8022957-6.2448692C45.253212,32.4476776,47.2553902,35.9160843,45.54496,36.9045715z"/><path d="M33.7434654,43.8192673c-0.8554688,0-1.6533203-0.4609375-2.0820332-1.2021484 c-0.6611328-1.1474609-0.2675781-2.6201172,0.8789082-3.2832031l10.8017578-6.2441406 c0.5488281-0.3154297,1.1767578-0.3046875,1.7685547,0.0361328c0.8466797,0.4882813,1.4863281,1.5947266,1.4863281,2.5732422 c0.0009766,0.6826172-0.3017578,1.2333984-0.8515625,1.5517578l-10.8027344,6.2451172 C34.5774498,43.7069626,34.1624107,43.8192673,33.7434654,43.8192673z M44.1799889,33.6610641 c-0.1513672,0-0.296875,0.0400391-0.4375,0.1220703L32.940731,40.0272751 c-0.7646484,0.4423828-1.0273457,1.4248047-0.5859375,2.1894531c0.4267578,0.7373047,1.4433594,1.0146484,2.1875,0.5869141 l10.8027344-6.2460938l0,0c0.3007813-0.1728516,0.4521484-0.4619141,0.4521484-0.8574219 c0-0.6923828-0.4873047-1.5361328-1.0869141-1.8818359C44.5286217,33.7137985,44.3508873,33.6610641,44.1799889,33.6610641z"/><path fill="#ffd63c" d="M47.042778,44.635994l-10.8032494,6.244873c-0.3155823,0.1821938-0.6597672,0.269001-0.9991837,0.269001 c-0.6912308,0-1.3643417-0.359623-1.7352219-1.0016022c-0.5529823-0.9577255-0.2250061-2.1825409,0.7322235-2.7358093 l10.8032532-6.244873C46.7102737,40.2027664,48.7124519,43.6711769,47.042778,44.635994z"/><path d="M35.2405357,51.5507126c-0.8554688,0-1.6533203-0.4609375-2.0820313-1.2021484 c-0.6611328-1.1474609-0.2675781-2.6201172,0.8789063-3.2832031l10.8027344-6.2441406 c0.5039063-0.2900391,1.0859375-0.2939453,1.6347656-0.0097656c0.4511719,0.2324219,0.8642578,0.6464844,1.1650391,1.1660156 c0.2998047,0.5195313,0.4521484,1.0849609,0.4287109,1.5917969c-0.0292969,0.6201172-0.3222656,1.1220703-0.8261719,1.4130859 l-10.8027344,6.2451172C36.0745201,51.4384079,35.659481,51.5507126,35.2405357,51.5507126z M45.650692,41.400322 c-0.1416016,0-0.2792969,0.0380859-0.4101563,0.1142578l-10.8027344,6.2441406 c-0.7646484,0.4423828-1.0273438,1.4248047-0.5859375,2.1894531c0.4257584,0.7373047,1.4433594,1.015625,2.1875,0.5869141 l10.8027344-6.2460938l0,0c0.2675781-0.1542969,0.4111328-0.4091797,0.4267578-0.7568359 c0.0166016-0.3505859-0.1005859-0.7714844-0.3222656-1.1552734c-0.2207031-0.3828125-0.5263672-0.6943359-0.8378906-0.8544922 C45.9514732,41.4413376,45.7981529,41.400322,45.650692,41.400322z"/><g><path fill="#ffd63c" d="M48.5386925,52.3674164l-10.8032532,6.2334251c-0.3155785,0.1821976-0.6588097,0.269001-0.9982262,0.269001 c-0.6921844,0-1.3652954-0.359623-1.7352219-1.0025558c-0.5529861-0.9577255-0.2240562-2.1825409,0.7331772-2.7348557 l10.8032532-6.2334251C48.1218109,47.9849243,50.1220818,51.4533348,48.5386925,52.3674164z"/><path d="M36.737606,59.2704391c-0.8574219,0-1.6552734-0.4619141-2.0820313-1.2041016 c-0.3212891-0.5546875-0.40625-1.2021484-0.2402344-1.8222656c0.1669922-0.6201172,0.5644531-1.1376953,1.1210938-1.4580078 l10.8017578-6.2333984c0.5029297-0.2890625,1.0849609-0.2705078,1.6396484,0.0488281 c0.8632813,0.4980469,1.5390625,1.6699219,1.5390625,2.6669922c0,0.6416016-0.2763672,1.1552734-0.7783203,1.4453125l0,0 L37.9358482,58.947197C37.5706139,59.1581345,37.1565514,59.2704391,36.737606,59.2704391z M47.0950279,49.1483688 c-0.1240234,0-0.2441406,0.0322266-0.3564453,0.0976563l-10.8027344,6.2333984 c-0.3710938,0.2138672-0.6367188,0.5585938-0.7470703,0.9716797c-0.1113281,0.4140625-0.0546875,0.8457031,0.1601563,1.2158203 c0.4238281,0.7373047,1.4394531,1.0166016,2.1865234,0.5878906l10.8027344-6.234375 c0.2519531-0.1445313,0.3789063-0.3974609,0.3789063-0.7519531c0-0.7138672-0.5214844-1.6181641-1.1396484-1.9746094 C47.409481,49.1962204,47.2483482,49.1483688,47.0950279,49.1483688z M48.5383873,52.3671188h0.0097656H48.5383873z"/></g><g><path fill="#fff" d="M38.0414886,65.5987091c-0.9391174,0-1.7771721-0.6648712-1.963089-1.6216431l-5.6080093-28.9091301 c-0.2107048-1.0855446,0.4986382-2.1367531,1.5836296-2.3475647c1.0878487-0.2108154,2.1356583,0.4988937,2.3463631,1.5844383 l5.6080093,28.9091301c0.2107048,1.0855446-0.4986382,2.1367531-1.5836296,2.3475685 C38.296051,65.5863113,38.1673393,65.5987091,38.0414886,65.5987091z"/><path d="M38.041317,65.9989548c-1.1464844,0-2.1367188-0.8183594-2.3554688-1.9453125l-5.6084003-28.9091797 c-0.2519531-1.3007813,0.6005859-2.5634766,1.9003906-2.8164063c1.2949238-0.2548828,2.5634785,0.5996094,2.8154316,1.9003906 l5.6074219,28.9091797c0.2529297,1.2998047-0.5996094,2.5634766-1.8994141,2.8164063 C38.3460045,65.9833298,38.1917076,65.9989548,38.041317,65.9989548z M32.4358482,33.0839157 c-0.1015625,0-0.203125,0.0097656-0.3056641,0.0292969c-0.8662128,0.1689453-1.4355488,1.0117188-1.26758,1.8789063 l5.6084003,28.9091797c0.1650391,0.8525391,0.9921875,1.4326172,1.8798828,1.2675781 c0.8652344-0.1689453,1.4326172-1.0117188,1.2646484-1.8789063l-5.6074219-28.9091797 C33.8596764,33.6161423,33.1868248,33.0839157,32.4358482,33.0839157z"/></g></g></svg>