<svg xmlns="http://www.w3.org/2000/svg"  viewBox="0 0 64 64" width="64px" height="64px"><g id="Icons"><path fill="#3cc8b4" d="M32,6c-6.627,0-12,11.641-12,26c0,14.359,5.373,26,12,26s12-11.641,12-26C44,17.641,38.627,6,32,6z M32,56 c-4.73,0-10-9.856-10-24S27.27,8,32,8c4.729,0,10,9.856,10,24S36.729,56,32,56z"/><path fill="#3cc8b4" d="M10,40c0.325,0,0.642,0.033,0.953,0.083C12.164,35.351,17.783,28.661,27,23.34 c8.313-4.799,16.12-6.502,21.025-5.825c0.056-0.69,0.228-1.347,0.498-1.952C42.836,14.691,34.35,16.787,26,21.608 c-9.423,5.44-15.947,12.77-17.115,18.5C9.247,40.04,9.619,40,10,40z"/><path fill="#3cc8b4" d="M54,24c-0.325,0-0.642-0.033-0.953-0.083C51.836,28.649,46.217,35.339,37,40.66 c-8.313,4.799-16.12,6.502-21.025,5.825c-0.056,0.69-0.228,1.347-0.498,1.952C21.164,49.308,29.65,47.213,38,42.392 c9.423-5.44,15.947-12.77,17.115-18.5C54.753,23.96,54.381,24,54,24z"/><path fill="#3cc8b4" d="M37,23.34c9.217,5.321,14.836,12.012,16.047,16.744c0.313-0.05,0.63-0.084,0.952-0.084 c0.38,0,0.752,0.049,1.118,0.12C53.955,34.387,47.429,27.051,38,21.608c-8.351-4.821-16.837-6.917-22.524-6.045 c0.283,0.635,0.444,1.294,0.497,1.953C20.877,16.837,28.686,18.54,37,23.34z"/><path fill="#3cc8b4" d="M48.023,46.485C43.118,47.162,35.312,45.459,27,40.66c-9.218-5.322-14.837-12.013-16.047-16.745 C10.64,23.966,10.323,24,10.001,24c-0.38,0-0.752-0.049-1.118-0.12C10.045,29.612,16.571,36.948,26,42.392 c8.351,4.821,16.837,6.917,22.524,6.045C48.244,47.811,48.077,47.153,48.023,46.485z"/><circle cx="54" cy="18" r="4" fill="#64c8f0"/><circle cx="10" cy="46" r="4" fill="#64c8f0"/><path fill="#64c8f0" d="M10.001,22c-1.538,0-2.958-0.898-3.616-2.288c-0.944-1.993-0.091-4.383,1.902-5.327 c0.541-0.256,1.116-0.386,1.711-0.386c1.538,0,2.958,0.898,3.616,2.288c0.944,1.993,0.091,4.383-1.902,5.327 C11.171,21.871,10.596,22,10.001,22z"/><path fill="#64c8f0" d="M54.002,50c-1.539,0-2.958-0.898-3.616-2.289c-0.458-0.964-0.512-2.05-0.152-3.057 c0.359-1.006,1.089-1.812,2.055-2.269c0.54-0.256,1.116-0.386,1.711-0.386c1.539,0,2.958,0.898,3.616,2.289 c0.458,0.964,0.512,2.05,0.152,3.057c-0.359,1.006-1.089,1.812-2.055,2.269C55.173,49.871,54.597,50,54.002,50z"/><path fill="#46aad2" d="M51.997,18c0-1.859,1.28-3.412,3.001-3.858C54.677,14.058,54.347,14,54,14c-2.206,0-4,1.794-4,4s1.794,4,4,4 c0.347,0,0.677-0.058,0.999-0.142C53.277,21.412,51.997,19.859,51.997,18z"/><path fill="#46aad2" d="M7.997,46c0-1.859,1.28-3.412,3.001-3.858C10.677,42.058,10.347,42,10,42c-2.206,0-4,1.794-4,4s1.794,4,4,4 c0.347,0,0.677-0.058,0.999-0.142C9.278,49.412,7.997,47.859,7.997,46z"/><path fill="#46aad2" d="M8.382,19.712c-0.944-1.993-0.091-4.383,1.902-5.327c0.233-0.11,0.475-0.186,0.719-0.249 c-0.325-0.085-0.661-0.137-1.006-0.137c-0.595,0-1.17,0.129-1.711,0.386c-1.993,0.944-2.847,3.334-1.902,5.327 C7.043,21.102,8.463,22,10.001,22c0.339,0,0.668-0.053,0.992-0.137C9.865,21.567,8.893,20.791,8.382,19.712z"/><path fill="#46aad2" d="M52.383,47.711c-0.458-0.964-0.512-2.05-0.152-3.057c0.359-1.006,1.089-1.812,2.055-2.269 c0.233-0.11,0.475-0.186,0.719-0.249c-0.325-0.085-0.661-0.137-1.006-0.137c-0.595,0-1.171,0.129-1.711,0.386 c-0.966,0.458-1.695,1.263-2.055,2.269c-0.359,1.007-0.306,2.093,0.152,3.057C51.044,49.102,52.463,50,54.002,50 c0.339,0,0.668-0.053,0.991-0.137C53.865,49.567,52.894,48.79,52.383,47.711z"/><path fill="#fab400" d="M32,40L32,40c-4.418,0-8-3.582-8-8v0c0-4.418,3.582-8,8-8h0c4.418,0,8,3.582,8,8v0C40,36.418,36.418,40,32,40 z"/><g><path fill="#dc9600" d="M26,32c0-4.079,3.055-7.438,7-7.931C32.672,24.028,32.339,24,32,24c-4.418,0-8,3.582-8,8s3.582,8,8,8 c0.339,0,0.672-0.028,1-0.069C29.055,39.438,26,36.079,26,32z"/></g><g><path fill="#f0f0f0" d="M36,32.8v-1.6h-0.905c-0.076-0.293-0.191-0.569-0.341-0.823l0.64-0.64l-1.131-1.131l-0.64,0.64 c-0.254-0.15-0.53-0.265-0.823-0.341V28h-1.6v0.905c-0.293,0.076-0.569,0.191-0.823,0.341l-0.64-0.64l-1.131,1.131l0.64,0.64 c-0.15,0.254-0.265,0.53-0.341,0.823H28v1.6h0.905c0.076,0.293,0.191,0.569,0.341,0.823l-0.64,0.64l1.131,1.131l0.64-0.64 c0.254,0.15,0.53,0.265,0.823,0.341V36h1.6v-0.905c0.293-0.076,0.569-0.191,0.823-0.341l0.64,0.64l1.131-1.131l-0.64-0.64 c0.15-0.254,0.265-0.53,0.341-0.823H36z M32,33.6c-0.882,0-1.6-0.718-1.6-1.6c0-0.882,0.718-1.6,1.6-1.6s1.6,0.718,1.6,1.6 C33.6,32.882,32.882,33.6,32,33.6z"/></g></g></svg>