<svg xmlns="http://www.w3.org/2000/svg"  viewBox="0 0 60 60" width="60px" height="60px"><path d="M 17.535156 -0.001953125 A 16.732 16.732 0 0 0 17.439453 0 A 17.737 17.737 0 0 0 0 17.439453 A 16.834 16.834 0 0 0 17.087891 34.525391 L 25.578125 34.425781 L 25.478516 42.919922 A 16.832 16.832 0 0 0 42.376953 60 L 42.5625 60 A 17.759 17.759 0 0 0 60 42.5625 A 16.813 16.813 0 0 0 42.912109 25.476562 L 34.419922 25.576172 L 34.519531 17.083984 A 16.746 16.746 0 0 0 29.599609 4.9238281 A 16.732 16.732 0 0 0 17.535156 -0.001953125 z M 17.464844 2 A 14.813 14.813 0 0 1 32.523438 17.0625 L 32.419922 25.603516 L 27.679688 25.666016 L 27.759766 17.308594 L 27.759766 17.300781 A 10.217 10.217 0 0 0 17.441406 7 A 10.584 10.584 0 0 0 7 17.441406 A 10.21 10.21 0 0 0 17.246094 27.759766 L 17.308594 27.759766 L 26.679688 27.679688 L 33.412109 27.59375 L 42.9375 27.476562 A 14.813 14.813 0 0 1 58 42.535156 A 15.757 15.757 0 0 1 42.537109 58 A 14.832 14.832 0 0 1 27.474609 42.9375 L 27.574219 34.394531 L 32.306641 34.332031 L 32.234375 42.683594 A 10.2 10.2 0 0 0 42.484375 53 L 42.546875 53 A 10.584 10.584 0 0 0 53 42.5625 A 10.2 10.2 0 0 0 42.765625 32.240234 L 42.681641 32.240234 L 33.3125 32.320312 L 26.582031 32.40625 L 17.068359 32.523438 A 14.832 14.832 0 0 1 2 17.462891 A 15.736 15.736 0 0 1 17.464844 2 z M 17.457031 9 L 17.521484 9 A 8.215 8.215 0 0 1 25.759766 17.294922 L 25.759766 17.300781 L 25.679688 25.693359 L 17.294922 25.765625 L 17.242188 25.765625 A 8.21 8.21 0 0 1 9 17.457031 A 8.583 8.583 0 0 1 17.457031 9 z M 16 13 A 1 1 0 0 0 15 14 L 15 21 A 1 1 0 0 0 16 22 L 18 22 A 4 4 0 0 0 22 18 L 22 17 A 4 4 0 0 0 18 13 L 16 13 z M 17 15 L 18 15 A 2 2 0 0 1 20 17 L 20 18 A 2 2 0 0 1 18 20 L 17 20 L 17 15 z M 42.699219 34.240234 A 8.286 8.286 0 0 1 48.599609 36.640625 A 8.19 8.19 0 0 1 51 42.539062 A 8.583 8.583 0 0 1 42.533203 51 L 42.482422 51 A 8.205 8.205 0 0 1 34.240234 42.699219 L 34.3125 34.3125 L 42.699219 34.240234 z M 42 38 A 3 3 0 0 0 39 41 L 39 44 A 3 3 0 0 0 42 47 L 43 47 A 3 3 0 0 0 46 44 L 46 41 A 3 3 0 0 0 43 38 L 42 38 z M 42 40 L 43 40 A 1 1 0 0 1 44 41 L 44 44 A 1 1 0 0 1 43 45 L 42 45 A 1 1 0 0 1 41 44 L 41 41 A 1 1 0 0 1 42 40 z"/></svg>