<svg xmlns="http://www.w3.org/2000/svg"  viewBox="0 0 100 100" width="40px" height="40px"><path fill="#c7ede6" d="M88.704,55.881c0.3-0.616,0.566-1.264,0.796-1.943c2.633-7.77-1.349-17.078-9.733-19.325C78.86,23.23,70.86,15.421,61.826,14.088c-10.341-1.525-19.814,5.044-22.966,15.485c-3.799-1.346-7.501-1.182-10.99,0.857c-1.583,0.732-3.031,1.812-4.33,3.233c-1.907,2.086-3.147,4.719-3.652,7.495c-0.748,0.118-1.483,0.236-2.176,0.484c-4.04,1.449-6.589,4.431-7.288,8.923c-0.435,2.797,0.443,5.587,0.933,6.714c1.935,4.455,6.422,6.98,10.981,6.312c0.227-0.033,0.557,0.069,0.752,0.233c0.241,7.12,3.698,13.417,8.884,17.014c8.321,5.772,19.027,3.994,25.781-3.921c2.894,2.96,6.338,4.398,10.384,3.876c4.023-0.519,7.147-2.739,9.426-6.349c1.053,0.283,2.051,0.691,3.083,0.804c4.042,0.442,7.324-1.165,9.732-4.8c0.922-1.391,1.793-3.194,1.793-6.354C92.174,60.838,90.88,57.871,88.704,55.881z"/><path fill="#fff" d="M18.368 47.917H8.338c-.276 0-.5-.224-.5-.5s.224-.5.5-.5h10.03c.276 0 .5.224.5.5S18.645 47.917 18.368 47.917zM21.25 47.917h-1.446c-.276 0-.5-.224-.5-.5s.224-.5.5-.5h1.446c.276 0 .5.224.5.5S21.526 47.917 21.25 47.917zM25.304 47.917h-2.546c-.276 0-.5-.224-.5-.5s.224-.5.5-.5h2.546c.276 0 .5.224.5.5S25.58 47.917 25.304 47.917zM25.304 49.782h-9.616c-.276 0-.5-.224-.5-.5s.224-.5.5-.5h9.616c.276 0 .5.224.5.5S25.58 49.782 25.304 49.782zM13.956 49.782h-.58c-.276 0-.5-.224-.5-.5s.224-.5.5-.5h.58c.276 0 .5.224.5.5S14.233 49.782 13.956 49.782zM11.579 49.782h-1.456c-.276 0-.5-.224-.5-.5s.224-.5.5-.5h1.456c.276 0 .5.224.5.5S11.856 49.782 11.579 49.782zM20.715 46.053h-5.027c-.276 0-.5-.224-.5-.5s.224-.5.5-.5h5.027c.276 0 .5.224.5.5S20.991 46.053 20.715 46.053zM20.715 44.187h-1.257c-.276 0-.5-.224-.5-.5s.224-.5.5-.5h1.257c.276 0 .5.224.5.5S20.991 44.187 20.715 44.187zM17.447 51.647h-1.759c-.276 0-.5-.224-.5-.5s.224-.5.5-.5h1.759c.276 0 .5.224.5.5S17.723 51.647 17.447 51.647zM71.546 21.64h-10.03c-.276 0-.5-.224-.5-.5s.224-.5.5-.5h10.03c.276 0 .5.224.5.5S71.823 21.64 71.546 21.64zM74.428 21.64h-1.446c-.276 0-.5-.224-.5-.5s.224-.5.5-.5h1.446c.276 0 .5.224.5.5S74.704 21.64 74.428 21.64zM78.482 21.64h-2.546c-.276 0-.5-.224-.5-.5s.224-.5.5-.5h2.546c.276 0 .5.224.5.5S78.759 21.64 78.482 21.64zM76.456 17.91H66.84c-.276 0-.5-.224-.5-.5s.224-.5.5-.5h9.616c.276 0 .5.224.5.5S76.733 17.91 76.456 17.91zM65.108 17.91h-.58c-.276 0-.5-.224-.5-.5s.224-.5.5-.5h.58c.276 0 .5.224.5.5S65.385 17.91 65.108 17.91zM62.732 17.91h-1.457c-.276 0-.5-.224-.5-.5s.224-.5.5-.5h1.457c.276 0 .5.224.5.5S63.008 17.91 62.732 17.91zM73.893 19.776h-5.028c-.276 0-.5-.224-.5-.5s.224-.5.5-.5h5.028c.276 0 .5.224.5.5S74.17 19.776 73.893 19.776z"/><path fill="#fff" d="M73.893 17.91h-1.257c-.276 0-.5-.224-.5-.5s.224-.5.5-.5h1.257c.276 0 .5.224.5.5S74.17 17.91 73.893 17.91zM67.41 19.776h-1.759c-.276 0-.5-.224-.5-.5s.224-.5.5-.5h1.759c.276 0 .5.224.5.5S67.687 19.776 67.41 19.776z"/><path fill="#fdfcef" d="M46.311,41.395c1.883,0,3.517,0,3.54,0c2.11,0,3.821-1.674,3.821-3.739c0-1.802-1.302-3.305-3.035-3.66c0.02-0.158,0.034-0.317,0.034-0.48c0-2.139-1.772-3.873-3.957-3.873c-1.29,0-2.433,0.607-3.155,1.543c-0.185-2.381-2.358-4.218-4.9-3.913c-1.859,0.223-3.397,1.629-3.739,3.431c-0.11,0.578-0.098,1.139,0.011,1.665c-0.498-0.525-1.208-0.856-1.998-0.856c-1.446,0-2.627,1.102-2.72,2.494c-0.657-0.142-1.371-0.133-2.123,0.143c-1.438,0.528-2.462,1.853-2.522,3.356c-0.085,2.133,1.657,3.889,3.818,3.889c0.164,0,0.741,0,0.874,0h7.934 M39.834,41.395h0.36"/><path fill="#472b29" d="M49.852,41.894h-3.541c-0.276,0-0.5-0.224-0.5-0.5s0.224-0.5,0.5-0.5h3.541c1.831,0,3.32-1.453,3.32-3.239c0-1.524-1.108-2.857-2.635-3.17c-0.256-0.052-0.429-0.293-0.396-0.553c0.018-0.137,0.029-0.276,0.029-0.417c0-1.86-1.551-3.373-3.457-3.373c-1.092,0-2.098,0.491-2.759,1.348c-0.127,0.164-0.341,0.233-0.539,0.173c-0.198-0.059-0.339-0.234-0.355-0.44c-0.079-1.019-0.565-1.944-1.37-2.604c-0.828-0.68-1.885-0.981-2.973-0.852c-1.646,0.197-3.006,1.442-3.307,3.028c-0.094,0.494-0.091,0.988,0.01,1.471c0.045,0.219-0.06,0.441-0.258,0.544c-0.197,0.104-0.44,0.063-0.595-0.099c-0.428-0.452-1.009-0.7-1.636-0.7c-1.169,0-2.145,0.891-2.221,2.027c-0.01,0.145-0.082,0.279-0.198,0.366c-0.116,0.088-0.263,0.12-0.407,0.089c-0.638-0.139-1.242-0.098-1.845,0.124c-1.262,0.464-2.144,1.632-2.195,2.906c-0.035,0.875,0.283,1.708,0.895,2.345c0.635,0.661,1.496,1.024,2.423,1.024h8.808c0.276,0,0.5,0.224,0.5,0.5s-0.224,0.5-0.5,0.5h-8.808c-1.185,0-2.331-0.485-3.145-1.332c-0.802-0.835-1.218-1.928-1.172-3.077c0.066-1.674,1.211-3.203,2.849-3.805c0.61-0.224,1.241-0.305,1.88-0.245c0.344-1.396,1.629-2.424,3.135-2.424c0.493,0,0.977,0.113,1.414,0.323c0.009-0.242,0.037-0.484,0.083-0.726c0.382-2.009,2.097-3.586,4.17-3.834c1.36-0.162,2.685,0.218,3.726,1.072c0.748,0.613,1.278,1.409,1.546,2.302c0.791-0.648,1.786-1.007,2.843-1.007c2.458,0,4.457,1.962,4.457,4.373c0,0.034,0,0.068-0.001,0.102c1.764,0.555,3.003,2.188,3.003,4.038C54.172,39.992,52.234,41.894,49.852,41.894z M40.194,41.894h-0.359c-0.276,0-0.5-0.224-0.5-0.5s0.224-0.5,0.5-0.5h0.359c0.276,0,0.5,0.224,0.5,0.5S40.47,41.894,40.194,41.894z"/><path fill="#472b29" d="M48.144 36.092c-.018 0-.037-.002-.055-.006-.135-.03-.219-.164-.188-.299.038-.167.095-.328.169-.479.605-1.224 2.272-1.675 3.722-1.006.125.058.18.207.122.332-.058.125-.207.18-.332.122-1.205-.559-2.578-.21-3.063.774-.058.116-.101.24-.13.368C48.362 36.013 48.258 36.092 48.144 36.092zM42.985 41.894h-1.107c-.276 0-.5-.224-.5-.5s.224-.5.5-.5h1.107c.276 0 .5.224.5.5S43.262 41.894 42.985 41.894z"/><path fill="#77cbd2" d="M61.673,58.297c0,0,11.711,0,11.811,0c3.792,0,6.866-3.074,6.866-6.866c0-3.308-2.34-6.069-5.455-6.72c0.036-0.29,0.06-0.583,0.06-0.882c0-3.928-3.184-7.111-7.111-7.111c-2.319,0-4.372,1.115-5.67,2.832c-0.332-4.372-4.237-7.745-8.806-7.186c-3.341,0.409-6.104,2.991-6.719,6.3c-0.197,1.061-0.177,2.092,0.02,3.058c-0.896-0.965-2.171-1.572-3.591-1.572c-2.599,0-4.72,2.023-4.888,4.58c-1.18-0.261-2.464-0.244-3.816,0.263c-2.584,0.97-4.425,3.403-4.532,6.161c-0.153,3.917,2.977,7.141,6.86,7.141c0.295,0,1.331,0,1.571,0h12.078"/><path fill="#472b29" d="M73.484,58.997H61.673c-0.387,0-0.7-0.313-0.7-0.7s0.313-0.7,0.7-0.7h11.812c3.4,0,6.166-2.766,6.166-6.166c0-2.903-2.06-5.441-4.898-6.035c-0.357-0.074-0.597-0.41-0.552-0.772c0.033-0.261,0.055-0.525,0.055-0.795c0-3.535-2.876-6.411-6.411-6.411c-2.021,0-3.884,0.931-5.111,2.554c-0.176,0.232-0.48,0.333-0.756,0.25c-0.279-0.082-0.479-0.328-0.5-0.618c-0.147-1.935-1.095-3.753-2.6-4.986c-1.521-1.247-3.446-1.798-5.423-1.558c-3.043,0.372-5.558,2.73-6.116,5.733c-0.174,0.938-0.168,1.876,0.018,2.791c0.062,0.308-0.087,0.619-0.366,0.762c-0.28,0.144-0.619,0.083-0.833-0.146c-0.807-0.87-1.9-1.348-3.078-1.348c-2.205,0-4.045,1.724-4.189,3.926c-0.014,0.204-0.115,0.391-0.278,0.514c-0.164,0.123-0.372,0.167-0.571,0.124c-1.183-0.261-2.302-0.184-3.419,0.235c-2.345,0.88-3.984,3.104-4.079,5.533c-0.066,1.696,0.543,3.302,1.716,4.521c1.174,1.221,2.752,1.893,4.445,1.893h13.649c0.387,0,0.7,0.313,0.7,0.7s-0.313,0.7-0.7,0.7H36.703c-2.077,0-4.014-0.825-5.454-2.322c-1.439-1.497-2.187-3.467-2.105-5.547c0.116-2.985,2.12-5.714,4.985-6.789c1.125-0.422,2.288-0.563,3.467-0.419c0.528-2.56,2.804-4.469,5.483-4.469c0.962,0,1.903,0.252,2.732,0.717c-0.001-0.542,0.049-1.087,0.15-1.631c0.668-3.598,3.679-6.421,7.322-6.867c2.361-0.289,4.663,0.374,6.48,1.865c1.411,1.156,2.412,2.742,2.863,4.488c1.421-1.288,3.258-2.004,5.217-2.004c4.307,0,7.812,3.504,7.812,7.812c0,0.118-0.003,0.235-0.01,0.351c3.166,0.944,5.404,3.899,5.404,7.251C81.05,55.603,77.656,58.997,73.484,58.997z"/><path fill="#472b29" d="M69.818,48.35c-0.018,0-0.037-0.002-0.055-0.006c-0.135-0.03-0.219-0.164-0.188-0.299c0.066-0.295,0.168-0.584,0.301-0.859c1.076-2.227,3.991-3.078,6.496-1.896c0.125,0.059,0.179,0.208,0.12,0.333c-0.059,0.126-0.21,0.177-0.333,0.12c-2.26-1.066-4.876-0.32-5.833,1.662c-0.116,0.241-0.205,0.494-0.264,0.752C70.035,48.272,69.932,48.35,69.818,48.35z"/><path fill="#fdfcef" d="M72.28,76.027c0,0,10.309,0,10.371,0c2.381,0,4.31-1.93,4.31-4.311c0-2.077-1.469-3.81-3.425-4.219c0.023-0.182,0.038-0.366,0.038-0.554c0-2.466-1.999-4.465-4.464-4.465c-1.456,0-2.745,0.7-3.56,1.778c-0.208-2.745-2.66-4.862-5.528-4.511c-2.097,0.257-3.832,1.878-4.218,3.955c-0.124,0.666-0.111,1.313,0.012,1.92c-0.562-0.606-1.363-0.987-2.254-0.987c-1.632,0-2.963,1.27-3.069,2.875c-0.741-0.164-1.547-0.153-2.396,0.165c-1.622,0.609-2.778,2.137-2.845,3.868c-0.096,2.459,1.869,4.483,4.307,4.483c0.185,0,0.836,0,0.986,0h8.951"/><path fill="#472b29" d="M82.652,76.527H72.28c-0.276,0-0.5-0.224-0.5-0.5s0.224-0.5,0.5-0.5h10.372c2.101,0,3.811-1.709,3.811-3.811c0-1.794-1.273-3.363-3.027-3.729c-0.255-0.053-0.426-0.292-0.394-0.551c0.02-0.161,0.034-0.325,0.034-0.492c0-2.186-1.778-3.964-3.964-3.964c-1.25,0-2.402,0.576-3.161,1.579c-0.125,0.167-0.338,0.239-0.54,0.178c-0.199-0.059-0.342-0.234-0.357-0.441c-0.091-1.199-0.678-2.324-1.61-3.088c-0.941-0.772-2.132-1.114-3.359-0.965c-1.884,0.231-3.441,1.691-3.787,3.551c-0.108,0.582-0.104,1.163,0.011,1.729c0.045,0.219-0.062,0.442-0.261,0.544c-0.201,0.102-0.442,0.06-0.595-0.104c-0.495-0.534-1.166-0.827-1.888-0.827c-1.353,0-2.481,1.058-2.57,2.408c-0.01,0.146-0.083,0.28-0.199,0.367c-0.117,0.087-0.268,0.118-0.408,0.088c-0.731-0.163-1.421-0.113-2.112,0.145c-1.449,0.544-2.462,1.918-2.521,3.419c-0.041,1.048,0.336,2.041,1.061,2.794c0.726,0.754,1.701,1.169,2.747,1.169h9.937c0.276,0,0.5,0.224,0.5,0.5s-0.224,0.5-0.5,0.5H59.56c-1.321,0-2.552-0.524-3.468-1.477c-0.915-0.952-1.391-2.204-1.339-3.526c0.074-1.898,1.347-3.633,3.169-4.317c0.698-0.261,1.42-0.352,2.15-0.272c0.358-1.607,1.798-2.8,3.49-2.8c0.58,0,1.148,0.144,1.656,0.41c0.005-0.311,0.037-0.623,0.094-0.934c0.425-2.284,2.336-4.077,4.649-4.36c1.495-0.182,2.959,0.237,4.114,1.184c0.87,0.713,1.494,1.683,1.792,2.753c0.893-0.777,2.031-1.208,3.243-1.208c2.737,0,4.964,2.227,4.964,4.964c0,0.059-0.001,0.118-0.004,0.176c1.989,0.615,3.391,2.481,3.391,4.597C87.462,74.369,85.304,76.527,82.652,76.527z"/><path fill="#fdfcef" d="M84.397,68.003c-1.498-0.706-3.231-0.206-3.87,1.117c-0.079,0.164-0.138,0.334-0.177,0.506"/><path fill="#472b29" d="M80.35,69.876c-0.018,0-0.037-0.002-0.055-0.006c-0.135-0.03-0.219-0.165-0.188-0.299c0.044-0.193,0.11-0.381,0.196-0.56c0.698-1.443,2.584-1.998,4.201-1.234c0.125,0.059,0.179,0.208,0.12,0.333c-0.059,0.125-0.21,0.177-0.333,0.12c-1.372-0.646-2.959-0.198-3.538,1c-0.07,0.144-0.123,0.296-0.159,0.452C80.567,69.797,80.464,69.876,80.35,69.876z"/><path fill="#ee3e54" d="M42.545,62.53l6.48,6.548c0.061,0.062,0.131,0.104,0.205,0.138c0.027,0.014,0.053,0.024,0.082,0.035c0.048,0.015,0.097,0.024,0.147,0.03c0.036,0.005,0.068,0.022,0.106,0.022c0.04,0,0.074-0.017,0.112-0.023c0.003,0,0.006,0,0.009-0.001c0.234,0.038,0.481-0.02,0.661-0.202l6.48-6.548c0.297-0.3,0.297-0.791,0-1.092c-0.297-0.3-0.783-0.3-1.08,0l-5.308,5.459V48.046c-0.11-0.408-0.454-0.756-0.874-0.756s-0.764,0.347-0.688,0.772v18.606l-5.251-5.23c-0.297-0.3-0.783-0.3-1.08,0C42.248,61.739,42.248,62.23,42.545,62.53z"/><path fill="#472b29" d="M49.565,47.291c0.42,0,0.764,0.347,0.874,0.756v18.851l5.308-5.459c0.148-0.15,0.344-0.225,0.54-0.225c0.196,0,0.392,0.075,0.54,0.225c0.297,0.3,0.297,0.791,0,1.091l-6.48,6.548c-0.145,0.147-0.334,0.213-0.524,0.213c-0.045,0-0.091-0.004-0.136-0.011c-0.003,0-0.006,0-0.009,0.001c-0.038,0.006-0.072,0.023-0.112,0.023c-0.037,0-0.07-0.016-0.106-0.022c-0.05-0.006-0.099-0.015-0.147-0.03c-0.029-0.01-0.055-0.021-0.082-0.035c-0.073-0.034-0.144-0.077-0.205-0.138l-6.48-6.548c-0.297-0.3-0.297-0.791,0-1.091c0.149-0.15,0.344-0.225,0.54-0.225c0.196,0,0.392,0.075,0.54,0.225l5.251,5.23V48.062C48.801,47.638,49.145,47.291,49.565,47.291 M49.565,46.291c-0.513,0-0.994,0.222-1.318,0.608c-0.288,0.344-0.42,0.788-0.371,1.232v16.13l-3.546-3.531c-0.328-0.331-0.772-0.517-1.246-0.517s-0.918,0.185-1.251,0.522c-0.682,0.689-0.682,1.81,0,2.498l6.48,6.548c0.138,0.139,0.299,0.251,0.493,0.341c0.036,0.019,0.097,0.045,0.164,0.069c0.111,0.036,0.204,0.059,0.299,0.073c0.078,0.02,0.175,0.038,0.294,0.038c0.067,0,0.128-0.006,0.18-0.014c0.026,0.001,0.052,0.002,0.078,0.002c0.472,0,0.91-0.181,1.235-0.509l6.48-6.548c0.682-0.689,0.682-1.809,0-2.498c-0.333-0.336-0.777-0.522-1.251-0.522c-0.474,0-0.918,0.185-1.251,0.522l-3.597,3.699V48.046c0-0.088-0.012-0.176-0.035-0.261C51.167,46.905,50.41,46.291,49.565,46.291L49.565,46.291z"/><path fill="#88ae45" d="M69.416,54.064l-6.48-6.548c-0.061-0.062-0.131-0.104-0.205-0.138c-0.027-0.014-0.053-0.024-0.082-0.035c-0.048-0.015-0.097-0.024-0.147-0.03c-0.036-0.005-0.068-0.022-0.106-0.022c-0.04,0-0.074,0.017-0.112,0.023c-0.003,0-0.006,0-0.009,0.001c-0.234-0.038-0.481,0.02-0.661,0.202l-6.48,6.548c-0.297,0.3-0.297,0.791,0,1.092c0.297,0.3,0.783,0.3,1.08,0l5.308-5.459v18.851c0.11,0.408,0.454,0.756,0.874,0.756c0.42,0,0.764-0.347,0.688-0.772V49.926l5.251,5.23c0.297,0.3,0.783,0.3,1.08,0C69.713,54.855,69.713,54.364,69.416,54.064z"/><path fill="#472b29" d="M62.397,47.291c0.037,0,0.07,0.016,0.106,0.022c0.05,0.006,0.099,0.015,0.147,0.03c0.028,0.01,0.055,0.021,0.082,0.035c0.073,0.034,0.144,0.077,0.205,0.139l6.48,6.548c0.297,0.3,0.297,0.791,0,1.092c-0.149,0.15-0.344,0.225-0.54,0.225c-0.196,0-0.392-0.075-0.54-0.225l-5.251-5.23v18.606c0.076,0.424-0.268,0.772-0.688,0.772c-0.42,0-0.764-0.347-0.874-0.756V49.697l-5.308,5.459c-0.148,0.15-0.344,0.225-0.54,0.225c-0.196,0-0.392-0.075-0.54-0.225c-0.297-0.3-0.297-0.791,0-1.092l6.48-6.548c0.145-0.147,0.334-0.213,0.524-0.213c0.045,0,0.091,0.004,0.136,0.011c0.003,0,0.006,0,0.009-0.001C62.323,47.308,62.357,47.291,62.397,47.291 M62.397,46.291c-0.067,0-0.128,0.006-0.18,0.014c-0.026-0.001-0.052-0.002-0.078-0.002c-0.472,0-0.91,0.181-1.235,0.509l-6.48,6.548c-0.682,0.689-0.682,1.81,0,2.498c0.333,0.336,0.777,0.522,1.251,0.522s0.918-0.185,1.251-0.522l3.597-3.699v16.388c0,0.088,0.012,0.176,0.035,0.261c0.238,0.88,0.994,1.495,1.84,1.495c0.514,0,0.994-0.222,1.318-0.608c0.288-0.344,0.42-0.788,0.371-1.232v-16.13l3.546,3.531c0.328,0.331,0.772,0.517,1.246,0.517c0.474,0,0.918-0.185,1.251-0.522c0.682-0.689,0.682-1.81,0-2.498l-6.48-6.548c-0.137-0.139-0.299-0.251-0.493-0.341c-0.036-0.018-0.097-0.045-0.164-0.069c-0.111-0.036-0.204-0.059-0.299-0.073C62.612,46.309,62.515,46.291,62.397,46.291L62.397,46.291z"/></svg>