<svg xmlns="http://www.w3.org/2000/svg"  viewBox="0 0 64 64" width="40px" height="40px"><linearGradient id="VGqsGnoQsVqk9hwXidAZSa" x1="15.088" x2="15.088" y1="10.489" y2="19.174" gradientUnits="userSpaceOnUse"><stop offset="0" stop-color="#6dc7ff"/><stop offset="1" stop-color="#e6abff"/></linearGradient><path fill="url(#VGqsGnoQsVqk9hwXidAZSa)" d="M13,9l-3.614,8.433c-0.88,2.054,1.162,4.147,3.237,3.317L21,17L13,9z"/><linearGradient id="VGqsGnoQsVqk9hwXidAZSb" x1="32" x2="32" y1="1154.333" y2="1100.796" gradientTransform="rotate(180 32 579)" gradientUnits="userSpaceOnUse"><stop offset="0" stop-color="#1a6dff"/><stop offset="1" stop-color="#c822ff"/></linearGradient><path fill="url(#VGqsGnoQsVqk9hwXidAZSb)" d="M7,32c0,13.785,11.215,25,25,25s25-11.215,25-25S45.785,7,32,7	c-5.27,0-10.262,1.621-14.512,4.664l-3.043-3.043c-0.527-0.523-1.27-0.734-1.992-0.563c-0.719,0.168-1.289,0.691-1.523,1.395	L8.172,17.73c-0.395,1.172-0.094,2.441,0.781,3.316c0.617,0.621,1.441,0.949,2.285,0.949c0.344,0,0.691-0.055,1.031-0.168	l8.277-2.758c0.703-0.234,1.227-0.805,1.395-1.523c0.172-0.723-0.039-1.469-0.563-1.992l-2.457-2.457C22.773,10.426,27.266,9,32,9	c12.684,0,23,10.316,23,23S44.684,55,32,55S9,44.684,9,32H7z M19.965,16.969c0.012,0.012,0.047,0.051,0.031,0.117	s-0.063,0.082-0.082,0.086l-8.277,2.762c-0.453,0.148-0.93,0.039-1.27-0.301s-0.453-0.816-0.301-1.27l2.762-8.277	c0.004-0.02,0.02-0.066,0.086-0.082C12.926,10,12.938,10,12.949,10c0.047,0,0.07,0.027,0.082,0.035L19.965,16.969z"/><linearGradient id="VGqsGnoQsVqk9hwXidAZSc" x1="21.5" x2="21.5" y1="1154.333" y2="1100.796" gradientTransform="rotate(180 32 579)" gradientUnits="userSpaceOnUse"><stop offset="0" stop-color="#1a6dff"/><stop offset="1" stop-color="#c822ff"/></linearGradient><path fill="url(#VGqsGnoQsVqk9hwXidAZSc)" d="M32,51v2c11.578,0,21-9.422,21-21h-2C51,42.477,42.477,51,32,51z"/><linearGradient id="VGqsGnoQsVqk9hwXidAZSd" x1="26" x2="26" y1="23.851" y2="39.679" gradientUnits="userSpaceOnUse"><stop offset="0" stop-color="#6dc7ff"/><stop offset="1" stop-color="#e6abff"/></linearGradient><path fill="url(#VGqsGnoQsVqk9hwXidAZSd)" d="M27.667,24h-5.833C21.373,24,21,24.362,21,24.809v1.352c0,0.447,0.373,0.809,0.833,0.809 L28,27v3.804l-4.465,0.961C22.045,32.12,21,33.397,21,34.862v1.946C21,38.571,22.498,40,24.346,40h5.824 c0.458,0,0.83-0.362,0.83-0.808v-1.383C31,37.362,30.628,37,30.17,37H24v-2.205l4.486-1.005C29.963,33.431,31,32.137,31,30.653 v-3.419C31,25.448,29.508,24,27.667,24z"/><linearGradient id="VGqsGnoQsVqk9hwXidAZSe" x1="38.5" x2="38.5" y1="23.851" y2="39.679" gradientUnits="userSpaceOnUse"><stop offset="0" stop-color="#6dc7ff"/><stop offset="1" stop-color="#e6abff"/></linearGradient><path fill="url(#VGqsGnoQsVqk9hwXidAZSe)" d="M42.2,24h-1.4c-0.442,0-0.8,0.358-0.8,0.8v6.751l-3-0.8V24.8c0-0.442-0.358-0.8-0.8-0.8h-1.4 c-0.442,0-0.8,0.358-0.8,0.8v5.991c0,1.45,0.975,2.718,2.375,3.092L40,34.849V39.2c0,0.442,0.358,0.8,0.8,0.8h1.4 c0.442,0,0.8-0.358,0.8-0.8V24.8C43,24.358,42.642,24,42.2,24z"/></svg>