<svg xmlns="http://www.w3.org/2000/svg"  viewBox="0 0 64 64" width="40px" height="40px"><path fill="#00A0C8" d="M40,4H12C9.791,4,8,5.791,8,8v25.586c0,0.891,1.077,1.337,1.707,0.707L16,28h24c2.209,0,4-1.791,4-4V8 C44,5.791,42.209,4,40,4z"/><path fill="#0082AA" d="M43,24V8c0-2.209-1.791-4-4-4H23c-2.209,0-4,1.791-4,4v16c0,2.209,1.791,4,4,4h16 C41.209,28,43,26.209,43,24z"/><path fill="#C80A50" d="M52,4H24c-2.209,0-4,1.791-4,4v16c0,2.209,1.791,4,4,4h24l6.293,6.293c0.63,0.63,1.707,0.184,1.707-0.707 V8C56,5.791,54.209,4,52,4z"/><path fill="#A00028" d="M45,24V12c0-2.209-1.791-4-4-4H25c-2.209,0-4,1.791-4,4v12c0,2.209,1.791,4,4,4h16 C43.209,28,45,26.209,45,24z"/><path fill="#C80A50" d="M33,38h-2c-2.761,0-5,2.239-5,5v10c0,0.552,0.448,1,1,1h10c0.552,0,1-0.448,1-1V43 C38,40.239,35.761,38,33,38z"/><path fill="#C80A50" d="M40,60H24v-4c0-2.209,1.791-4,4-4h8c2.209,0,4,1.791,4,4V60z"/><path fill="#00A0C8" d="M28,52c0,2.209,1.791,4,4,4s4-1.791,4-4H28z"/><path fill="#D2AA82" d="M32,54L32,54c-1.105,0-2-0.895-2-2v-3h4v3C34,53.105,33.105,54,32,54z"/><path fill="#F0C8A0" d="M33,50h-2c-1.657,0-3-1.343-3-3v-3c0-1.105,0.895-2,2-2h1v0c0,1.105,0.895,2,2,2h3v3 C36,48.657,34.657,50,33,50z"/><g><path fill="#FAB400" d="M24,60H8v-7c0-1.657,1.343-3,3-3h10c1.657,0,3,1.343,3,3V60z"/><path fill="#00A0C8" d="M12,50c0,2.209,1.791,4,4,4s4-1.791,4-4H12z"/><path fill="#A00028" d="M24,56v4h1v-6.645C24.378,54.06,24,54.986,24,56z"/><path fill="#D2AA82" d="M16,52L16,52c-1.105,0-2-0.895-2-2v-3h4v3C18,51.105,17.105,52,16,52z"/><path fill="#F0C8A0" d="M17,48h-2c-1.657,0-3-1.343-3-3v-3c0-1.105,0.895-2,2-2h4c1.105,0,2,0.895,2,2v3 C20,46.657,18.657,48,17,48z"/><path fill="#0A5078" d="M18,40h-4c-1.105,0-2,0.895-2,2v0v-2c0-1.105,0.895-2,2-2h4c1.105,0,2,0.895,2,2v2v0 C20,40.895,19.105,40,18,40z"/></g><g><path fill="#00A0C8" d="M56,60H40v-7c0-1.657,1.343-3,3-3h10c1.657,0,3,1.343,3,3V60z"/><path fill="#0A5078" d="M44,50c0,2.209,1.791,4,4,4s4-1.791,4-4H44z"/><path fill="#0082AA" d="M40.5,51.342C40.184,51.817,40,52.387,40,53v7h1v-7C41,52.387,40.816,51.817,40.5,51.342z"/><path fill="#D2AA82" d="M48,52L48,52c-1.105,0-2-0.895-2-2v-3h4v3C50,51.105,49.105,52,48,52z"/><path fill="#F0C8A0" d="M49,48h-2c-1.657,0-3-1.343-3-3v-3c0-1.105,0.895-2,2-2h4c1.105,0,2,0.895,2,2v3 C52,46.657,50.657,48,49,48z"/><path fill="#DC9600" d="M50,40h-4c-1.105,0-2,0.895-2,2v0v-2c0-1.105,0.895-2,2-2h4c1.105,0,2,0.895,2,2v2v0 C52,40.895,51.105,40,50,40z"/></g><g><path fill="#0A5078" d="M40,8H24c-2.209,0-4,1.791-4,4v14c0,2.209,1.791,4,4,4h2l5.293,5.293c0.391,0.391,1.024,0.391,1.414,0 L38,30h2c2.209,0,4-1.791,4-4V12C44,9.791,42.209,8,40,8z"/></g><g><path fill="#FAB400" d="M32.589,12.479l1.754,3.553l3.921,0.57c0.704,0.102,0.986,0.968,0.476,1.465l-2.838,2.766l0.67,3.906 c0.12,0.702-0.616,1.236-1.246,0.905l-3.507-1.844l-3.507,1.844c-0.63,0.331-1.366-0.204-1.246-0.905l0.67-3.906l-2.838-2.766 c-0.51-0.497-0.228-1.362,0.476-1.465l3.921-0.57l1.754-3.553C31.364,11.84,32.274,11.84,32.589,12.479z"/></g></svg>