<svg xmlns="http://www.w3.org/2000/svg"  viewBox="0 0 64 64" width="64px" height="64px"><path fill="#ffb655" d="M8,37H7a2,2,0,0,0,0,4H9V37Z"/><path fill="#5aaae7" d="M61,11V51a2.006,2.006,0,0,1-2,2H13a1.9,1.9,0,0,1-1.36-.55,1.738,1.738,0,0,1-.25-.29A1.886,1.886,0,0,1,11,51V11Z"/><path fill="#3d9ae2" d="M61,17.27V51a2.006,2.006,0,0,1-2,2H23.34C34.99,46.5,51.98,34.66,61,17.27Z"/><path fill="#3d9ae2" d="M27,41a2.006,2.006,0,0,1-2,2H23.92A6.952,6.952,0,0,1,20,48.32V51l2.7,1.2,1.8.8H13a1.9,1.9,0,0,1-1.36-.55,1.738,1.738,0,0,1-.25-.29L13,51.44,14,51V48.32a5.906,5.906,0,0,1-1-.58,6.53,6.53,0,0,1-.95-.79A6.805,6.805,0,0,1,11,45.6V29H22a4,4,0,0,1,4,4v3l-2,2v1h1A2.006,2.006,0,0,1,27,41Z"/><path fill="#ff5023" d="M61,5v6H11V5a2.006,2.006,0,0,1,2-2H59A2.006,2.006,0,0,1,61,5Z"/><path fill="#ffd422" d="M55,31H44V20A10.994,10.994,0,0,1,55,31Z"/><path fill="#00ccb3" d="M40,35H51A11,11,0,1,1,40,24Z"/><path fill="#ffb655" d="M23,37H21v4h2a2,2,0,0,0,0-4Z"/><polygon fill="#1e81ce" points="20.7 50.2 20 53 17 52 16 50 18 49 20.7 50.2"/><path fill="#3d9ae2" d="M25.56,53a6.08,6.08,0,0,0-2.12-1.58L20.7,50.2,20,53l-3-1-.82.82.04.18L18,61h9V56.9A6.012,6.012,0,0,0,25.56,53Z"/><polygon fill="#ffc477" points="12 46 12 46.32 12 47 12 49 14 50 16 50 18 49 18 47 18 46.32 18 46 12 46"/><polygon fill="#ed1c24" points="16 50 14 50 13 52 13.82 52.82 14 53 15 54 16 53 16.18 52.82 17 52 16 50"/><polygon fill="#ff5023" points="16.22 53 16.18 52.82 16 53 15 54 14 53 13.82 52.82 13.78 53 12 61 18 61 16.22 53"/><path fill="#3d9ae2" d="M13,52l-1.36.45L10,53l-.7-2.8L6.56,51.42A6,6,0,0,0,3,56.9V61h9l1.78-8,.04-.18Z"/><polygon fill="#1e81ce" points="12 49 11 49.44 9.3 50.2 10 53 11.64 52.45 13 52 14 50 12 49"/><path fill="#ffc477" d="M21.44,36a2.009,2.009,0,0,1-1.9-1.37L19,33l-1.87,1.4a7.982,7.982,0,0,1-4.8,1.6H8v4a5.474,5.474,0,0,0,.08,1,6.874,6.874,0,0,0,1.97,3.95,6.53,6.53,0,0,0,.95.79,5.906,5.906,0,0,0,1,.58,6.958,6.958,0,0,0,6,0A6.952,6.952,0,0,0,21.92,41,5.474,5.474,0,0,0,22,40V36Z"/><path fill="#ffb655" d="M18,46.32v2a6.958,6.958,0,0,1-6,0v-2a6.958,6.958,0,0,0,6,0Z"/><path fill="#57565c" d="M20,27H4l2,4L5,33l3,3h4.33a7.982,7.982,0,0,0,4.8-1.6L19,33l.54,1.63A2.009,2.009,0,0,0,21.44,36H22l2-2V31A4,4,0,0,0,20,27Z"/><rect width="2" height="2" x="11" y="38"/><rect width="2" height="2" x="17" y="38"/><path d="M59,2H13a3,3,0,0,0-3,3V26H4a1,1,0,0,0-.895,1.447L4.882,31l-.777,1.553a1,1,0,0,0,.188,1.154l2.331,2.331A2.992,2.992,0,0,0,7,42h.263A8.022,8.022,0,0,0,11,46.918V48.35L6.153,50.506A7,7,0,0,0,2,56.9V61a1,1,0,0,0,1,1H27a1,1,0,0,0,1-1V56.9a6.978,6.978,0,0,0-.633-2.9H59a3,3,0,0,0,3-3V5A3,3,0,0,0,59,2ZM13,4H59a1,1,0,0,1,1,1v5H12V5A1,1,0,0,1,13,4ZM6.9,30.553,5.618,28H20a3,3,0,0,1,3,3v2.586L21.586,35h-.145a1,1,0,0,1-.949-.684l-.544-1.632a1,1,0,0,0-.65-.639A1.016,1.016,0,0,0,19,32a1,1,0,0,0-.6.2l-1.866,1.4a7.045,7.045,0,0,1-4.2,1.4H8.414l-2.2-2.2L6.9,31.447A1,1,0,0,0,6.9,30.553ZM23,38a1,1,0,0,1,0,2ZM6,39a1,1,0,0,1,1-1v2A1,1,0,0,1,6,39Zm3,1V37h3.333a9.05,9.05,0,0,0,5.4-1.8l.757-.567.106.316A2.994,2.994,0,0,0,21,36.965V40A6,6,0,0,1,9,40Zm6.783,11.8L15,52.586l-.783-.783.4-.8h.764Zm-1.375,2.981a.919.919,0,0,0,1.184,0L16.753,60H13.247Zm3.3-3.6-.367-.735.683-.341,1.5.667-.234.937ZM15,48a7.953,7.953,0,0,0,2-.263v.645L15.764,49H14.236L13,48.382v-.645A7.953,7.953,0,0,0,15,48Zm-3.025,2.106.683.341-.367.735-1.583.528-.234-.937ZM4,56.9a5,5,0,0,1,2.966-4.567L8.619,51.6l.411,1.645A1,1,0,0,0,10,54a1.01,1.01,0,0,0,.316-.051l2.407-.8L11.2,60H4ZM26,60H18.8l-1.525-6.853,2.407.8A1.01,1.01,0,0,0,20,54a1,1,0,0,0,.97-.757l.411-1.645,1.653.735A5,5,0,0,1,26,56.9Zm33-8H25.974a6.967,6.967,0,0,0-2.127-1.494L19,48.35V46.918A8.022,8.022,0,0,0,22.737,42H23a2.992,2.992,0,0,0,.376-5.962l1.331-1.331A1,1,0,0,0,25,34V31a5.006,5.006,0,0,0-5-5H12V12H60V51A1,1,0,0,1,59,52Z"/><rect width="2" height="2" x="16" y="6"/><rect width="2" height="2" x="20" y="6"/><rect width="2" height="2" x="24" y="6"/><path d="M44,19a1,1,0,0,0-1,1V31a1,1,0,0,0,1,1H55a1,1,0,0,0,1-1A12.013,12.013,0,0,0,44,19Zm1,11V21.05A10.018,10.018,0,0,1,53.95,30Z"/><path d="M51,34H41V24a1,1,0,0,0-1-1A12,12,0,1,0,52,35,1,1,0,0,0,51,34ZM40,45a10,10,0,0,1-1-19.95V35a1,1,0,0,0,1,1h9.95A10.013,10.013,0,0,1,40,45Z"/><rect width="2" height="2" x="16" y="16"/><rect width="4" height="2" x="20" y="16"/><rect width="8" height="2" x="16" y="20"/><path d="M32.293,21.707l1.414-1.414-4-4A1,1,0,0,0,29,16H26v2h2.586Z"/></svg>